<?xml version="1.0" encoding="UTF-8"?>
<svg version="1.1" xmlns="http://www.w3.org/2000/svg" width="500" height="500">
<path d="M0 0 C2.20264181 1.08783534 4.39336327 2.08758935 6.6484375 3.0546875 C28.64317775 12.65375768 46.67901019 27.97176563 63.87109375 44.41796875 C64.43666992 44.95486328 65.00224609 45.49175781 65.58496094 46.04492188 C67.12735678 47.51395873 68.65769515 48.99432457 70.18359375 50.48046875 C71.04597656 51.31707031 71.90835937 52.15367187 72.796875 53.015625 C74.880039 55.42832906 75.89883629 57.40450779 76.87109375 60.41796875 C77.53109375 60.41796875 78.19109375 60.41796875 78.87109375 60.41796875 C78.87109375 61.07796875 78.87109375 61.73796875 78.87109375 62.41796875 C79.53109375 62.41796875 80.19109375 62.41796875 80.87109375 62.41796875 C84.87109375 66.88855699 84.87109375 66.88855699 84.87109375 69.41796875 C85.53109375 69.41796875 86.19109375 69.41796875 86.87109375 69.41796875 C88.15698242 70.87353516 88.15698242 70.87353516 89.6015625 72.89453125 C90.39699463 73.9913623 90.39699463 73.9913623 91.20849609 75.11035156 C91.75715332 75.87186523 92.30581055 76.63337891 92.87109375 77.41796875 C93.92604451 78.82435463 94.98458166 80.22805822 96.046875 81.62890625 C97.09244792 83.01692708 98.13802083 84.40494792 99.18359375 85.79296875 C99.72048828 86.50324219 100.25738281 87.21351563 100.81054688 87.9453125 C101.32166016 88.62464844 101.83277344 89.30398437 102.359375 90.00390625 C102.81868408 90.61282715 103.27799316 91.22174805 103.7512207 91.84912109 C106.27385209 95.38311484 106.16282937 98.11486833 105.87109375 102.41796875 C104.49609375 105.35546875 104.49609375 105.35546875 102.87109375 107.41796875 C102.21109375 107.41796875 101.55109375 107.41796875 100.87109375 107.41796875 C100.56171875 108.40796875 100.56171875 108.40796875 100.24609375 109.41796875 C98.37985123 113.48977061 95.89547848 117.10593873 92.87109375 120.41796875 C92.21109375 120.41796875 91.55109375 120.41796875 90.87109375 120.41796875 C90.58234375 121.18109375 90.29359375 121.94421875 89.99609375 122.73046875 C88.87109375 125.41796875 88.87109375 125.41796875 86.87109375 128.41796875 C86.21109375 128.41796875 85.55109375 128.41796875 84.87109375 128.41796875 C84.58234375 129.01609375 84.29359375 129.61421875 83.99609375 130.23046875 C82.87109375 132.41796875 82.87109375 132.41796875 80.87109375 135.41796875 C80.21109375 135.41796875 79.55109375 135.41796875 78.87109375 135.41796875 C78.49791016 136.26681641 78.49791016 136.26681641 78.1171875 137.1328125 C72.49638842 147.44054749 60.25622437 158.43928188 50.87109375 165.41796875 C50.21109375 165.41796875 49.55109375 165.41796875 48.87109375 165.41796875 C48.87109375 166.07796875 48.87109375 166.73796875 48.87109375 167.41796875 C47.22109375 168.07796875 45.57109375 168.73796875 43.87109375 169.41796875 C43.87109375 170.07796875 43.87109375 170.73796875 43.87109375 171.41796875 C41.9381091 172.81741465 39.9483536 174.13905468 37.93359375 175.41796875 C33.7360987 177.79398045 33.7360987 177.79398045 30.87109375 181.41796875 C31.53109375 181.41796875 32.19109375 181.41796875 32.87109375 181.41796875 C35.42171783 183.89320492 37.6203388 186.67094489 39.87109375 189.41796875 C40.67546875 190.36671875 41.47984375 191.31546875 42.30859375 192.29296875 C44.78633064 197.24844252 44.9064445 202.18938979 43.2109375 207.4765625 C41.34072841 211.24126911 38.76081533 213.88565545 34.9921875 215.7578125 C29.9736395 217.3197547 24.51889566 217.47891874 19.609375 215.51171875 C17.68359375 214.41796875 17.68359375 214.41796875 14.87109375 212.41796875 C14.87109375 211.75796875 14.87109375 211.09796875 14.87109375 210.41796875 C14.21109375 210.41796875 13.55109375 210.41796875 12.87109375 210.41796875 C12.87109375 209.75796875 12.87109375 209.09796875 12.87109375 208.41796875 C12.21109375 208.41796875 11.55109375 208.41796875 10.87109375 208.41796875 C10.87109375 207.75796875 10.87109375 207.09796875 10.87109375 206.41796875 C10.21109375 206.41796875 9.55109375 206.41796875 8.87109375 206.41796875 C6.24609375 204.04296875 6.24609375 204.04296875 3.87109375 201.41796875 C3.87109375 200.75796875 3.87109375 200.09796875 3.87109375 199.41796875 C3.21109375 199.41796875 2.55109375 199.41796875 1.87109375 199.41796875 C1.87109375 198.75796875 1.87109375 198.09796875 1.87109375 197.41796875 C1.21109375 197.41796875 0.55109375 197.41796875 -0.12890625 197.41796875 C-0.12890625 196.75796875 -0.12890625 196.09796875 -0.12890625 195.41796875 C-0.78890625 195.41796875 -1.44890625 195.41796875 -2.12890625 195.41796875 C-2.12890625 194.75796875 -2.12890625 194.09796875 -2.12890625 193.41796875 C-2.78890625 193.41796875 -3.44890625 193.41796875 -4.12890625 193.41796875 C-4.12890625 192.75796875 -4.12890625 192.09796875 -4.12890625 191.41796875 C-4.78890625 191.41796875 -5.44890625 191.41796875 -6.12890625 191.41796875 C-7.81622902 189.43536449 -9.48256682 187.43473455 -11.12890625 185.41796875 C-11.78890625 185.08796875 -12.44890625 184.75796875 -13.12890625 184.41796875 C-13.12890625 183.75796875 -13.12890625 183.09796875 -13.12890625 182.41796875 C-13.78890625 182.41796875 -14.44890625 182.41796875 -15.12890625 182.41796875 C-15.12890625 181.75796875 -15.12890625 181.09796875 -15.12890625 180.41796875 C-16.11890625 180.08796875 -17.10890625 179.75796875 -18.12890625 179.41796875 C-18.12890625 178.75796875 -18.12890625 178.09796875 -18.12890625 177.41796875 C-18.78890625 177.41796875 -19.44890625 177.41796875 -20.12890625 177.41796875 C-20.12890625 176.75796875 -20.12890625 176.09796875 -20.12890625 175.41796875 C-21.44890625 174.75796875 -22.76890625 174.09796875 -24.12890625 173.41796875 C-24.12890625 172.75796875 -24.12890625 172.09796875 -24.12890625 171.41796875 C-24.78890625 171.41796875 -25.44890625 171.41796875 -26.12890625 171.41796875 C-26.12890625 170.75796875 -26.12890625 170.09796875 -26.12890625 169.41796875 C-26.78890625 169.41796875 -27.44890625 169.41796875 -28.12890625 169.41796875 C-28.12890625 168.75796875 -28.12890625 168.09796875 -28.12890625 167.41796875 C-28.78890625 167.41796875 -29.44890625 167.41796875 -30.12890625 167.41796875 C-30.12890625 166.75796875 -30.12890625 166.09796875 -30.12890625 165.41796875 C-30.78890625 165.41796875 -31.44890625 165.41796875 -32.12890625 165.41796875 C-32.12890625 164.75796875 -32.12890625 164.09796875 -32.12890625 163.41796875 C-32.92554688 163.82789063 -33.7221875 164.2378125 -34.54296875 164.66015625 C-35.60257813 165.19898438 -36.6621875 165.7378125 -37.75390625 166.29296875 C-38.79804688 166.82664062 -39.8421875 167.3603125 -40.91796875 167.91015625 C-47.91005307 171.19354378 -53.66791829 171.80403125 -61.31640625 171.79296875 C-62.85808472 171.79272705 -62.85808472 171.79272705 -64.4309082 171.79248047 C-71.63065021 171.6838008 -77.70697582 170.87496077 -84.12890625 167.41796875 C-84.87785156 167.04414063 -85.62679687 166.6703125 -86.3984375 166.28515625 C-86.96949219 165.99898437 -87.54054687 165.7128125 -88.12890625 165.41796875 C-88.12890625 164.75796875 -88.12890625 164.09796875 -88.12890625 163.41796875 C-88.80953125 163.23234375 -89.49015625 163.04671875 -90.19140625 162.85546875 C-96.05504737 159.98602735 -100.23831608 154.55354777 -104.12890625 149.41796875 C-104.99902344 150.37509766 -104.99902344 150.37509766 -105.88671875 151.3515625 C-107.05847656 152.59099609 -107.05847656 152.59099609 -108.25390625 153.85546875 C-109.01960938 154.67917969 -109.7853125 155.50289062 -110.57421875 156.3515625 C-113.52902544 158.74161256 -115.36861247 159.21652444 -119.12890625 159.41796875 C-121.50390625 158.41796875 -121.50390625 158.41796875 -123.12890625 156.41796875 C-123.59803714 152.0394138 -123.59834154 150.12212168 -121.12890625 146.41796875 C-120.46890625 146.41796875 -119.80890625 146.41796875 -119.12890625 146.41796875 C-118.74605469 145.50917969 -118.74605469 145.50917969 -118.35546875 144.58203125 C-116.98950774 142.17202362 -115.74195057 141.36788882 -113.50390625 139.79296875 C-110.53930447 137.02477951 -109.89383414 134.88921076 -109.671875 130.9609375 C-109.61535798 126.43329614 -109.8277891 121.93472595 -110.12890625 117.41796875 C-110.89203125 117.72734375 -111.65515625 118.03671875 -112.44140625 118.35546875 C-114.31680302 119.09690468 -116.21575277 119.78025092 -118.12890625 120.41796875 C-118.81923233 121.73920761 -119.48257469 123.07466025 -120.12890625 124.41796875 C-122.53368288 127.13146671 -125.08852131 129.43633983 -128.12890625 131.41796875 C-131.91564419 131.63231241 -133.26168835 131.14968385 -136.12890625 128.73046875 C-137.12890625 126.41796875 -137.12890625 126.41796875 -136.61328125 123.7265625 C-134.63352799 119.31379669 -131.81062686 116.51460538 -128.37890625 113.16796875 C-127.77046875 112.5440625 -127.16203125 111.92015625 -126.53515625 111.27734375 C-122.17509327 106.95454626 -118.58043352 104.56803515 -112.25390625 104.29296875 C-111.55265625 104.33421875 -110.85140625 104.37546875 -110.12890625 104.41796875 C-110.00761016 100.02603958 -110.22729132 97.5700058 -112.9765625 94.05712891 C-115.46466642 91.53776997 -118.01544498 89.11954193 -120.62890625 86.73046875 C-122.39812674 85.09017414 -124.15895688 83.4407705 -125.91015625 81.78125 C-126.69455078 81.06235596 -127.47894531 80.34346191 -128.28710938 79.6027832 C-130.38235396 77.11731876 -130.98456522 75.6521919 -131.12890625 72.41796875 C-129.06640625 69.54296875 -129.06640625 69.54296875 -126.12890625 67.41796875 C-122.74956101 67.24428728 -120.78554395 67.89136552 -118.14526367 70.00878906 C-115.94605873 72.10813462 -113.8414958 74.27019084 -111.75390625 76.48046875 C-111.01785156 77.23908203 -110.28179687 77.99769531 -109.5234375 78.77929688 C-107.7134392 80.64806135 -105.91615332 82.52747687 -104.12890625 84.41796875 C-101.65390625 83.42796875 -101.65390625 83.42796875 -99.12890625 82.41796875 C-99.12890625 81.75796875 -99.12890625 81.09796875 -99.12890625 80.41796875 C-98.46890625 80.41796875 -97.80890625 80.41796875 -97.12890625 80.41796875 C-97.12632812 79.763125 -97.12375 79.10828125 -97.12109375 78.43359375 C-96.68773953 68.20643417 -92.65387698 60.20264099 -86.12890625 52.41796875 C-89.06714222 46.88717163 -93.28001337 42.14620264 -97.7890625 37.828125 C-99.75640561 35.7575394 -100.05986661 34.24859379 -100.12890625 31.41796875 C-98.62890625 29.04296875 -98.62890625 29.04296875 -96.12890625 27.41796875 C-91.07771893 27.52569549 -88.30737697 28.5347809 -84.75 32.171875 C-84.29753906 32.66558594 -83.84507812 33.15929687 -83.37890625 33.66796875 C-82.91097656 34.14621094 -82.44304687 34.62445313 -81.9609375 35.1171875 C-79.20641149 37.99656455 -77.04019327 40.92668447 -75.12890625 44.41796875 C-73.17984375 44.17046875 -73.17984375 44.17046875 -71.19140625 43.91796875 C-63.07630036 43.04168971 -56.04367047 43.32233378 -48.12890625 45.41796875 C-47.79890625 44.09796875 -47.46890625 42.77796875 -47.12890625 41.41796875 C-46.46890625 41.41796875 -45.80890625 41.41796875 -45.12890625 41.41796875 C-44.46890625 39.76796875 -43.80890625 38.11796875 -43.12890625 36.41796875 C-42.46890625 36.41796875 -41.80890625 36.41796875 -41.12890625 36.41796875 C-40.92265625 35.86109375 -40.71640625 35.30421875 -40.50390625 34.73046875 C-38.54289018 31.43239627 -36.27300931 29.59465548 -33.12890625 27.41796875 C-29.84058844 26.90215419 -28.11677616 26.8252468 -25.25390625 28.54296875 C-23.5742258 31.34243616 -23.67148348 33.21600939 -24.12890625 36.41796875 C-26.00390625 38.79296875 -26.00390625 38.79296875 -28.12890625 40.41796875 C-28.78890625 40.41796875 -29.44890625 40.41796875 -30.12890625 40.41796875 C-30.46921875 41.22234375 -30.46921875 41.22234375 -30.81640625 42.04296875 C-32.00679634 44.19700796 -33.17391448 45.62035276 -34.81640625 47.41796875 C-37.38474788 50.04755955 -37.38474788 50.04755955 -36.953125 52.3671875 C-36.01737374 54.69547855 -34.84206593 56.29070158 -33.25390625 58.23046875 C-28.336772 64.64514748 -26.79844994 70.05669019 -26.6328125 78.0625 C-26.46652344 78.83980469 -26.30023438 79.61710937 -26.12890625 80.41796875 C-24.26643803 81.68514126 -24.26643803 81.68514126 -22.12890625 82.41796875 C-19.87890625 84.41796875 -19.87890625 84.41796875 -18.12890625 86.41796875 C-18.12890625 87.07796875 -18.12890625 87.73796875 -18.12890625 88.41796875 C-17.46890625 88.41796875 -16.80890625 88.41796875 -16.12890625 88.41796875 C-13.72674585 93.22228955 -13.51768396 98.1490077 -13.12890625 103.41796875 C-11.85015625 103.56234375 -10.57140625 103.70671875 -9.25390625 103.85546875 C-2.66326574 105.31660132 1.2918272 109.7106635 5.87109375 114.41796875 C6.59296875 115.13082031 7.31484375 115.84367187 8.05859375 116.578125 C10.99031502 119.64579302 12.69794081 121.50025814 13.49609375 125.73046875 C12.87109375 128.41796875 12.87109375 128.41796875 11.74609375 130.29296875 C9.05391832 131.90827401 6.9495617 131.67996602 3.87109375 131.41796875 C3.21109375 131.08796875 2.55109375 130.75796875 1.87109375 130.41796875 C1.87109375 129.75796875 1.87109375 129.09796875 1.87109375 128.41796875 C1.21109375 128.41796875 0.55109375 128.41796875 -0.12890625 128.41796875 C-0.12890625 127.75796875 -0.12890625 127.09796875 -0.12890625 126.41796875 C-0.78890625 126.41796875 -1.44890625 126.41796875 -2.12890625 126.41796875 C-2.12890625 125.75796875 -2.12890625 125.09796875 -2.12890625 124.41796875 C-2.78890625 124.41796875 -3.44890625 124.41796875 -4.12890625 124.41796875 C-4.12890625 123.75796875 -4.12890625 123.09796875 -4.12890625 122.41796875 C-4.78890625 122.41796875 -5.44890625 122.41796875 -6.12890625 122.41796875 C-6.58265625 121.77859375 -7.03640625 121.13921875 -7.50390625 120.48046875 C-9.38127424 118.09765553 -10.25448992 117.97984025 -13.12890625 117.41796875 C-14.26414454 128.17958235 -14.26414454 128.17958235 -11.62890625 138.37109375 C-9.59680788 140.64132864 -7.51751968 142.52920238 -5.12890625 144.41796875 C-3.81484676 145.58287863 -2.50230425 146.74950232 -1.19140625 147.91796875 C-0.54300781 148.46582031 0.10539063 149.01367188 0.7734375 149.578125 C4.66463658 152.99107615 8.25073811 156.72218903 11.87109375 160.41796875 C27.75734362 144.9730036 35.69910391 124.26547661 36.27563477 102.33056641 C36.38867625 91.0548873 35.57693473 81.09951039 31.87109375 70.41796875 C31.65146973 69.77682129 31.4318457 69.13567383 31.20556641 68.47509766 C28.43760975 60.55125854 24.97221541 53.41504751 20.19140625 46.4921875 C18.87109375 44.41796875 18.87109375 44.41796875 18.87109375 42.41796875 C18.21109375 42.41796875 17.55109375 42.41796875 16.87109375 42.41796875 C15.64453125 40.94921875 15.64453125 40.94921875 14.24609375 38.91796875 C9.68176375 32.63504017 4.67794197 27.24682088 -2.12890625 23.41796875 C-2.12890625 22.75796875 -2.12890625 22.09796875 -2.12890625 21.41796875 C-2.8146875 21.16660156 -3.50046875 20.91523438 -4.20703125 20.65625 C-6.94474808 19.49601439 -9.46170675 18.1305042 -12.03710938 16.65087891 C-35.71988591 3.20845458 -63.80775473 1.27421775 -89.93164062 7.81054688 C-94.90829257 9.18631466 -99.50625473 11.14499078 -104.12890625 13.41796875 C-104.97324219 13.79695313 -105.81757813 14.1759375 -106.6875 14.56640625 C-112.58188589 17.30669798 -117.62491698 20.79908775 -122.78125 24.74609375 C-125.12890625 26.41796875 -125.12890625 26.41796875 -128.12890625 27.41796875 C-128.12890625 28.07796875 -128.12890625 28.73796875 -128.12890625 29.41796875 C-130.11151051 31.10529152 -132.11214045 32.77162932 -134.12890625 34.41796875 C-134.62390625 35.40796875 -134.62390625 35.40796875 -135.12890625 36.41796875 C-135.78890625 36.41796875 -136.44890625 36.41796875 -137.12890625 36.41796875 C-137.37125 36.94519531 -137.61359375 37.47242188 -137.86328125 38.015625 C-139.16287675 40.48244979 -140.65116752 42.76997719 -142.20043945 45.0859375 C-156.65681316 66.7929598 -162.56143055 91.2185321 -157.9453125 117.04296875 C-154.94154758 129.4604467 -150.24474114 142.42679777 -142.421875 152.6484375 C-141.12890625 154.41796875 -141.12890625 154.41796875 -141.12890625 156.41796875 C-140.46890625 156.41796875 -139.80890625 156.41796875 -139.12890625 156.41796875 C-137.80112402 157.95385812 -136.54054684 159.54826457 -135.31640625 161.16796875 C-133.13360509 164.05585268 -131.20533582 166.35699806 -128.3671875 168.62109375 C-127.62855469 169.2140625 -126.88992187 169.80703125 -126.12890625 170.41796875 C-126.12890625 171.07796875 -126.12890625 171.73796875 -126.12890625 172.41796875 C-125.55785156 172.68867188 -124.98679687 172.959375 -124.3984375 173.23828125 C-121.3054721 174.84598444 -118.51212094 176.81583587 -115.640625 178.78515625 C-107.22831187 184.25381393 -98.63996373 187.39313337 -89.12890625 190.41796875 C-88.0615625 190.76472656 -86.99421875 191.11148438 -85.89453125 191.46875 C-66.30372961 196.71451034 -39.94449322 195.89925887 -21.80078125 186.18359375 C-21.1881543 185.82555664 -20.57552734 185.46751953 -19.94433594 185.09863281 C-17.58981375 184.21584531 -16.44987577 184.51820574 -14.12890625 185.41796875 C-11.734375 187.5625 -11.734375 187.5625 -9.31640625 190.23046875 C-8.50558594 191.10316406 -7.69476563 191.97585938 -6.859375 192.875 C-5.12890625 195.41796875 -5.12890625 195.41796875 -4.97265625 197.5859375 C-8.10086621 202.54245936 -18.08150118 203.68466812 -23.60449219 205.01367188 C-26.16999386 205.59383515 -28.73953294 206.14068613 -31.31640625 206.66796875 C-32.11022705 206.83103516 -32.90404785 206.99410156 -33.72192383 207.16210938 C-65.37045119 213.2464975 -100.22863617 208.73196524 -129.12890625 194.41796875 C-130.39807995 193.81305134 -131.66763909 193.20894221 -132.9375 192.60546875 C-141.49053182 188.49192125 -149.35131911 183.88578625 -157.12890625 178.41796875 C-158.33689943 177.60432732 -159.54660707 176.79322685 -160.7578125 175.984375 C-161.96506138 175.1708958 -163.17209721 174.35710032 -164.37890625 173.54296875 C-164.95278076 173.16148682 -165.52665527 172.78000488 -166.11791992 172.38696289 C-167.49120411 171.44830236 -168.81564751 170.43892151 -170.12890625 169.41796875 C-170.12890625 168.75796875 -170.12890625 168.09796875 -170.12890625 167.41796875 C-170.78890625 167.41796875 -171.44890625 167.41796875 -172.12890625 167.41796875 C-172.12890625 166.75796875 -172.12890625 166.09796875 -172.12890625 165.41796875 C-172.69609375 165.16789063 -173.26328125 164.9178125 -173.84765625 164.66015625 C-186.67255079 157.67673765 -198.21512136 142.79382729 -207.12890625 131.41796875 C-207.87140625 130.52980469 -208.61390625 129.64164063 -209.37890625 128.7265625 C-211.12890625 126.41796875 -211.12890625 126.41796875 -211.12890625 124.41796875 C-211.78890625 124.41796875 -212.44890625 124.41796875 -213.12890625 124.41796875 C-214.39404297 123.04443359 -214.39404297 123.04443359 -215.80859375 121.12890625 C-216.32550781 120.43410156 -216.84242188 119.73929688 -217.375 119.0234375 C-218.18130859 117.91935547 -218.18130859 117.91935547 -219.00390625 116.79296875 C-219.53371094 116.08011719 -220.06351563 115.36726563 -220.609375 114.6328125 C-221.65106702 113.22407268 -222.68348314 111.80842191 -223.70605469 110.38574219 C-224.94169279 108.67688098 -226.22290391 107.00115211 -227.51171875 105.33203125 C-229.55787814 101.64499042 -229.73303245 99.58228906 -229.12890625 95.41796875 C-227.81784837 93.00597739 -226.60464528 91.11299562 -224.94140625 88.98046875 C-224.49869385 88.3877417 -224.05598145 87.79501465 -223.59985352 87.18432617 C-218.47361178 80.39499412 -213.06820402 73.81690651 -207.64794922 67.26171875 C-206.24712307 65.56145532 -204.8587365 63.85215672 -203.4765625 62.13671875 C-202.70183594 61.17765625 -201.92710937 60.21859375 -201.12890625 59.23046875 C-200.13890625 58.00263672 -200.13890625 58.00263672 -199.12890625 56.75 C-196.90799749 54.16038568 -194.63266453 51.73641598 -192.12890625 49.41796875 C-191.46890625 49.41796875 -190.80890625 49.41796875 -190.12890625 49.41796875 C-189.88398438 48.84691406 -189.6390625 48.27585938 -189.38671875 47.6875 C-186.90426968 43.20829841 -182.8130027 39.91636278 -179.12890625 36.41796875 C-178.53207031 35.85078125 -177.93523437 35.28359375 -177.3203125 34.69921875 C-166.64503605 24.99874483 -154.61986867 16.58669501 -142.12890625 9.41796875 C-141.06027344 8.80179688 -139.99164063 8.185625 -138.890625 7.55078125 C-98.83203861 -14.80526816 -42.04464259 -20.79833918 0 0 Z M28.87109375 33.41796875 C30.63538574 38.39006437 33.26501035 42.85234936 35.87109375 47.41796875 C36.53109375 47.41796875 37.19109375 47.41796875 37.87109375 47.41796875 C37.97808594 47.93875 38.08507812 48.45953125 38.1953125 48.99609375 C39.08437233 52.18231973 40.39276621 55.12226933 41.68359375 58.16796875 C52.56543005 84.63083939 52.89939584 113.24008394 42.1171875 139.7890625 C40.87109375 142.41796875 40.87109375 142.41796875 39.21875 145.078125 C37.62154568 147.40120977 37.62154568 147.40120977 37.87109375 150.41796875 C37.21109375 150.41796875 36.55109375 150.41796875 35.87109375 150.41796875 C33.89109375 154.37796875 31.91109375 158.33796875 29.87109375 162.41796875 C34.79985985 160.45936948 34.79985985 160.45936948 38.87109375 157.41796875 C38.87109375 156.75796875 38.87109375 156.09796875 38.87109375 155.41796875 C39.44859375 155.14984375 40.02609375 154.88171875 40.62109375 154.60546875 C42.92659418 153.38867686 44.89165567 152.11462996 46.87109375 150.41796875 C46.87109375 149.75796875 46.87109375 149.09796875 46.87109375 148.41796875 C47.433125 148.18078125 47.99515625 147.94359375 48.57421875 147.69921875 C51.39003417 146.12849178 53.35064791 144.20325411 55.62109375 141.91796875 C56.4203125 141.12390625 57.21953125 140.32984375 58.04296875 139.51171875 C60.09032984 137.63013413 60.09032984 137.63013413 59.87109375 135.41796875 C60.53109375 135.41796875 61.19109375 135.41796875 61.87109375 135.41796875 C61.87109375 134.75796875 61.87109375 134.09796875 61.87109375 133.41796875 C62.53109375 133.41796875 63.19109375 133.41796875 63.87109375 133.41796875 C67.50742914 129.93798368 67.50742914 129.93798368 68.87109375 125.41796875 C69.53109375 125.41796875 70.19109375 125.41796875 70.87109375 125.41796875 C72.83090663 123.16388967 74.67510139 120.90471265 76.49609375 118.54296875 C77.01171875 117.89199219 77.52734375 117.24101562 78.05859375 116.5703125 C80.89574278 113.35290201 80.89574278 113.35290201 81.87109375 109.41796875 C82.53109375 109.41796875 83.19109375 109.41796875 83.87109375 109.41796875 C84.53109375 107.76796875 85.19109375 106.11796875 85.87109375 104.41796875 C86.53109375 104.41796875 87.19109375 104.41796875 87.87109375 104.41796875 C88.86109375 102.43796875 89.85109375 100.45796875 90.87109375 98.41796875 C77.93384789 81.66066998 64.18949814 65.73569464 49.30859375 50.66796875 C48.70031738 50.04664063 48.09204102 49.4253125 47.46533203 48.78515625 C45.97276279 47.2896264 44.42625776 45.84829646 42.87109375 44.41796875 C42.21109375 44.41796875 41.55109375 44.41796875 40.87109375 44.41796875 C40.87109375 43.75796875 40.87109375 43.09796875 40.87109375 42.41796875 C40.21109375 42.41796875 39.55109375 42.41796875 38.87109375 42.41796875 C38.87109375 41.75796875 38.87109375 41.09796875 38.87109375 40.41796875 C36.39609375 39.42796875 36.39609375 39.42796875 33.87109375 38.41796875 C33.87109375 37.75796875 33.87109375 37.09796875 33.87109375 36.41796875 C31.40782663 34.77330135 31.40782663 34.77330135 28.87109375 33.41796875 Z M-157.12890625 36.41796875 C-157.12890625 37.07796875 -157.12890625 37.73796875 -157.12890625 38.41796875 C-157.680625 38.66546875 -158.23234375 38.91296875 -158.80078125 39.16796875 C-161.58027332 40.66031349 -163.91037695 42.45469398 -166.37890625 44.41796875 C-167.2709375 45.11921875 -168.16296875 45.82046875 -169.08203125 46.54296875 C-169.7575 47.16171875 -170.43296875 47.78046875 -171.12890625 48.41796875 C-171.12890625 49.07796875 -171.12890625 49.73796875 -171.12890625 50.41796875 C-171.78890625 50.41796875 -172.44890625 50.41796875 -173.12890625 50.41796875 C-174.66347992 51.93516858 -174.66347992 51.93516858 -176.25390625 53.91796875 C-179.50784506 57.76789215 -182.97663343 61.2786121 -186.625 64.75390625 C-188.35240718 66.29144559 -188.35240718 66.29144559 -188.12890625 68.41796875 C-188.78890625 68.41796875 -189.44890625 68.41796875 -190.12890625 68.41796875 C-190.12890625 69.07796875 -190.12890625 69.73796875 -190.12890625 70.41796875 C-190.78890625 70.41796875 -191.44890625 70.41796875 -192.12890625 70.41796875 C-193.62768128 72.07280483 -195.05379098 73.79387387 -196.44140625 75.54296875 C-197.240625 76.54457031 -198.03984375 77.54617187 -198.86328125 78.578125 C-199.98476562 79.98384766 -199.98476562 79.98384766 -201.12890625 81.41796875 C-202.14533455 82.60924137 -203.16501996 83.79776501 -204.19140625 84.98046875 C-206.33632096 87.15995489 -206.33632096 87.15995489 -206.12890625 89.41796875 C-206.78890625 89.41796875 -207.44890625 89.41796875 -208.12890625 89.41796875 C-209.75685137 91.05742979 -209.75685137 91.05742979 -211.31640625 93.16796875 C-211.86683594 93.8640625 -212.41726562 94.56015625 -212.984375 95.27734375 C-214.34747639 97.33335945 -214.34747639 97.33335945 -213.8671875 99.55859375 C-213.14049049 101.46611237 -213.14049049 101.46611237 -212.12890625 103.41796875 C-211.46890625 103.41796875 -210.80890625 103.41796875 -210.12890625 103.41796875 C-210.12890625 104.07796875 -210.12890625 104.73796875 -210.12890625 105.41796875 C-209.46890625 105.41796875 -208.80890625 105.41796875 -208.12890625 105.41796875 C-207.80599609 106.44857422 -207.80599609 106.44857422 -207.4765625 107.5 C-205.73384813 111.27335546 -203.30371148 114.01066655 -200.56640625 117.10546875 C-195.23106078 123.21365969 -195.23106078 123.21365969 -194.12890625 125.41796875 C-193.46890625 125.41796875 -192.80890625 125.41796875 -192.12890625 125.41796875 C-191.84015625 126.01609375 -191.55140625 126.61421875 -191.25390625 127.23046875 C-190.08148599 129.61124667 -190.08148599 129.61124667 -188.12890625 132.41796875 C-187.46890625 132.41796875 -186.80890625 132.41796875 -186.12890625 132.41796875 C-186.12890625 133.07796875 -186.12890625 133.73796875 -186.12890625 134.41796875 C-185.46890625 134.41796875 -184.80890625 134.41796875 -184.12890625 134.41796875 C-183.91234375 134.959375 -183.69578125 135.50078125 -183.47265625 136.05859375 C-181.66390628 139.23442219 -179.21166826 141.62524956 -176.62890625 144.16796875 C-176.13003906 144.67457031 -175.63117188 145.18117188 -175.1171875 145.703125 C-172.59828988 148.54602474 -172.59828988 148.54602474 -169.12890625 149.41796875 C-169.12890625 150.07796875 -169.12890625 150.73796875 -169.12890625 151.41796875 C-164.36111281 156.33792581 -158.65919844 160.40262362 -153.12890625 164.41796875 C-152.46890625 164.08796875 -151.80890625 163.75796875 -151.12890625 163.41796875 C-151.55300781 162.85851562 -151.97710937 162.2990625 -152.4140625 161.72265625 C-163.19249859 146.98817879 -169.8165017 130.51387876 -172.12890625 112.41796875 C-172.23976562 111.72574219 -172.350625 111.03351563 -172.46484375 110.3203125 C-175.32718506 91.48301228 -171.5134529 71.56403085 -163.08203125 54.625 C-161.93067268 52.35961852 -161.93067268 52.35961852 -162.12890625 49.41796875 C-161.46890625 49.41796875 -160.80890625 49.41796875 -160.12890625 49.41796875 C-159.79117188 48.7425 -159.4534375 48.06703125 -159.10546875 47.37109375 C-156.1171875 41.39453125 -156.1171875 41.39453125 -153.12890625 35.41796875 C-155.20344185 35.26889755 -155.20344185 35.26889755 -157.12890625 36.41796875 Z M-79.875 64.69921875 C-82.33214895 68.06727339 -84.12890625 72.20839396 -84.12890625 76.41796875 C-69.27890625 76.41796875 -54.42890625 76.41796875 -39.12890625 76.41796875 C-40.37964712 68.91352353 -43.20117964 65.13147146 -48.69140625 60.04296875 C-59.33357803 52.94818756 -71.45857098 55.7094635 -79.875 64.69921875 Z M-96.12890625 95.41796875 C-101.55008148 105.34680627 -99.51669858 124.41032248 -96.50390625 135.04296875 C-92.58450206 145.14874958 -85.21024878 152.8119445 -75.31640625 157.35546875 C-72.05643739 158.62878726 -72.05643739 158.62878726 -68.12890625 158.41796875 C-67.97509851 149.86454656 -67.82691733 141.31105341 -67.68594265 132.757411 C-67.62030704 128.78572944 -67.55272484 124.81410078 -67.48071289 120.8425293 C-67.41130466 117.01062414 -67.34698506 113.17866442 -67.28621101 109.34661293 C-67.2621128 107.88374028 -67.23617298 106.42089679 -67.20837212 104.95808983 C-67.16978264 102.91115247 -67.13770882 100.86420986 -67.10717773 98.81713867 C-67.08719223 97.6513176 -67.06720673 96.48549652 -67.0466156 95.28434753 C-66.99289728 92.34454055 -66.99289728 92.34454055 -68.12890625 89.41796875 C-71.48239952 89.24220442 -74.83469604 89.13664438 -78.19140625 89.04296875 C-79.13435547 88.99269531 -80.07730469 88.94242187 -81.04882812 88.890625 C-87.86697794 88.74808528 -91.8496389 89.93663303 -96.12890625 95.41796875 Z M-55.12890625 89.41796875 C-55.12890625 112.18796875 -55.12890625 134.95796875 -55.12890625 158.41796875 C-44.18240013 155.98541184 -38.5713899 152.86320717 -31.734375 144.15234375 C-26.18755436 134.70520397 -25.54699757 126.60619117 -25.71728516 115.87475586 C-25.75420398 113.4610032 -25.75830082 111.04877357 -25.7578125 108.63476562 C-25.7676312 107.09503879 -25.77928274 105.55532231 -25.79296875 104.015625 C-25.7951944 103.29689713 -25.79742004 102.57816925 -25.79971313 101.83766174 C-25.86993988 98.15990292 -26.03419168 96.5600406 -28.12890625 93.41796875 C-28.78890625 93.41796875 -29.44890625 93.41796875 -30.12890625 93.41796875 C-30.12890625 92.75796875 -30.12890625 92.09796875 -30.12890625 91.41796875 C-37.08481132 86.7806987 -46.76894878 89.41796875 -55.12890625 89.41796875 Z M-20.12890625 148.41796875 C-21.49067206 150.39871902 -22.82483741 152.39876538 -24.12890625 154.41796875 C-23.13890625 155.90296875 -23.13890625 155.90296875 -22.12890625 157.41796875 C-21.46890625 157.41796875 -20.80890625 157.41796875 -20.12890625 157.41796875 C-20.12890625 158.07796875 -20.12890625 158.73796875 -20.12890625 159.41796875 C-18.50798033 161.01856168 -18.50798033 161.01856168 -16.44140625 162.66796875 C-12.91015357 165.66118468 -10.09507829 168.85856231 -7.12890625 172.41796875 C-5.81309184 173.60435879 -4.47833019 174.76995137 -3.12890625 175.91796875 C0.28458293 178.82198193 2.99919043 181.97168477 5.87109375 185.41796875 C7.70524466 187.08380934 9.59138742 188.67556343 11.48828125 190.26953125 C13.38713222 191.98160999 15.12943089 193.70916936 16.87890625 195.56640625 C17.40411865 196.11796387 17.92933105 196.66952148 18.47045898 197.23779297 C19.51665417 198.34462083 20.55047242 199.46330041 21.57055664 200.59423828 C23.18055084 202.3530197 23.18055084 202.3530197 25.87109375 204.41796875 C28.67216448 204.416389 28.67216448 204.416389 30.87109375 203.41796875 C32.26001303 200.4186571 32.26001303 200.4186571 30.55859375 197.73046875 C30.00171875 196.96734375 29.44484375 196.20421875 28.87109375 195.41796875 C28.21109375 195.41796875 27.55109375 195.41796875 26.87109375 195.41796875 C26.87109375 194.75796875 26.87109375 194.09796875 26.87109375 193.41796875 C26.21109375 193.41796875 25.55109375 193.41796875 24.87109375 193.41796875 C24.87109375 192.75796875 24.87109375 192.09796875 24.87109375 191.41796875 C24.21109375 191.41796875 23.55109375 191.41796875 22.87109375 191.41796875 C22.87109375 190.75796875 22.87109375 190.09796875 22.87109375 189.41796875 C22.21109375 189.41796875 21.55109375 189.41796875 20.87109375 189.41796875 C20.87109375 188.75796875 20.87109375 188.09796875 20.87109375 187.41796875 C20.21109375 187.41796875 19.55109375 187.41796875 18.87109375 187.41796875 C18.87109375 186.75796875 18.87109375 186.09796875 18.87109375 185.41796875 C17.33086066 183.85757598 17.33086066 183.85757598 15.32788086 182.24584961 C11.20111951 178.73485191 7.3660524 175.02701924 3.5625 171.171875 C2.91030991 170.51589828 2.25811981 169.85992157 1.58616638 169.18406677 C-0.46717332 167.11864706 -2.51718639 165.04997552 -4.56640625 162.98046875 C-7.29143816 160.22894041 -10.01970843 157.48068313 -12.75 154.734375 C-13.37595566 154.100121 -14.00191132 153.465867 -14.64683533 152.81239319 C-16.1220778 151.32867179 -17.62282725 149.87037901 -19.12890625 148.41796875 C-19.45890625 148.41796875 -19.78890625 148.41796875 -20.12890625 148.41796875 Z M28.87109375 162.41796875 C29.87109375 164.41796875 29.87109375 164.41796875 29.87109375 164.41796875 Z " fill="#EBE0CA" transform="translate(313.12890625,144.58203125)"/>
<path d="M0 0 C11.32967493 7.95033704 19.37903026 23.727952 22.56640625 36.9921875 C23.12063505 40.83683775 23.3163493 44.61862709 23.375 48.5 C23.38909912 49.19528809 23.40319824 49.89057617 23.41772461 50.60693359 C23.38971527 53.49225042 23.30773521 55.53239034 21.69921875 57.9765625 C20 59 20 59 16.4375 58.875 C13 58 13 58 11 55 C10.66145853 52.17882111 10.40236699 49.39259697 10.1875 46.5625 C8.81510422 32.17600632 3.0034573 21.19457421 -7 10.8125 C-9.73859159 7.79821127 -9.99386493 7.3865097 -10.0625 3.0625 C-8.16668886 -2.40189683 -5.06432027 -1.11586718 0 0 Z " fill="#51BF9A" transform="translate(309,190)"/>
<path d="M0 0 C0 0.99 0 1.98 0 3 C0.66 3 1.32 3 2 3 C2.33 4.32 2.66 5.64 3 7 C4.32 7.33 5.64 7.66 7 8 C7.22114415 10.79119779 7.42743301 13.5821212 7.625 16.375 C7.68945312 17.1690625 7.75390625 17.963125 7.8203125 18.78125 C7.96058587 20.85028224 7.98758237 22.92625536 8 25 C7.34 25.66 6.68 26.32 6 27 C6 22.05 6 17.1 6 12 C4.35 12.66 2.7 13.32 1 14 C0.01 14.33 -0.98 14.66 -2 15 C-2.69032608 16.32123886 -3.35366844 17.6566915 -4 19 C-6.40477663 21.71349796 -8.95961506 24.01837108 -12 26 C-15.78673794 26.21434366 -17.1327821 25.7317151 -20 23.3125 C-21 21 -21 21 -20.5 18.3125 C-18.47460581 13.8397545 -15.51786256 11.04642298 -12 7.6875 C-11.03707031 6.73907227 -11.03707031 6.73907227 -10.0546875 5.77148438 C-4.14092645 0 -4.14092645 0 0 0 Z " fill="#F9EBD5" transform="translate(197,250)"/>
<path d="M0 0 C12.89473684 10.78947368 12.89473684 10.78947368 15 15 C15.44720497 20.25465839 15.44720497 20.25465839 13.875 22.875 C11.18282457 24.49030526 9.07846795 24.26199727 6 24 C5.34 23.67 4.68 23.34 4 23 C4 22.34 4 21.68 4 21 C3.34 21 2.68 21 2 21 C2 20.34 2 19.68 2 19 C1.34 19 0.68 19 0 19 C0 18.34 0 17.68 0 17 C-0.66 17 -1.32 17 -2 17 C-2 16.34 -2 15.68 -2 15 C-2.66 15 -3.32 15 -4 15 C-4.45375 14.360625 -4.9075 13.72125 -5.375 13.0625 C-7.00072163 10.56636189 -7.00072163 10.56636189 -11 10 C-11 12.97 -11 15.94 -11 19 C-11.33 19 -11.66 19 -12 19 C-12 15.7 -12 12.4 -12 9 C-7.545 8.505 -7.545 8.505 -3 8 C-3.33 6.68 -3.66 5.36 -4 4 C-2.68 3.34 -1.36 2.68 0 2 C0 1.34 0 0.68 0 0 Z " fill="#D5CEBA" transform="translate(311,252)"/>
<path d="M0 0 C2.5625 1.125 2.5625 1.125 4.25 4.625 C5.45651913 8.4081532 6.34777532 12.25377682 7.1328125 16.14453125 C7.56744102 18.31963794 7.56744102 18.31963794 8.5625 21.125 C7.9025 22.115 7.2425 23.105 6.5625 24.125 C4.6171875 24.41796875 4.6171875 24.41796875 2.4375 24.3125 C1.15875 24.250625 -0.12 24.18875 -1.4375 24.125 C-1.1075 23.135 -0.7775 22.145 -0.4375 21.125 C-1.7575 21.125 -3.0775 21.125 -4.4375 21.125 C-6.90069246 16.09598206 -7.64826626 12.81568911 -7.4375 7.125 C-7.72270405 5.44942621 -8.03705696 3.77682755 -8.4375 2.125 C-7.1175 2.125 -5.7975 2.125 -4.4375 2.125 C-2.4375 0.125 -2.4375 0.125 0 0 Z " fill="#EADEC8" transform="translate(155.4375,270.875)"/>
<path d="M0 0 C0.99 0.66 1.98 1.32 3 2 C3 2.66 3 3.32 3 4 C3.56203125 4.2371875 4.1240625 4.474375 4.703125 4.71875 C7.51894042 6.28947697 9.47955416 8.21471464 11.75 10.5 C12.54921875 11.2940625 13.3484375 12.088125 14.171875 12.90625 C16 15 16 15 16 17 C16.66 17.33 17.32 17.66 18 18 C17.01 18 16.02 18 15 18 C15 19.32 15 20.64 15 22 C14.01 22.66 13.02 23.32 12 24 C11.27617533 26.05925139 11.27617533 26.05925139 11 28 C11.99 28.33 12.98 28.66 14 29 C16 31 16 31 16 33 C15.34 33 14.68 33 14 33 C14 32.34 14 31.68 14 31 C13.34 31 12.68 31 12 31 C12 30.34 12 29.68 12 29 C11.34 29 10.68 29 10 29 C10 28.34 10 27.68 10 27 C9.34 27 8.68 27 8 27 C8 26.34 8 25.68 8 25 C7.34 25 6.68 25 6 25 C6 24.34 6 23.68 6 23 C5.34 23 4.68 23 4 23 C2.31267723 21.01739574 0.64633943 19.0167658 -1 17 C-1.66 16.67 -2.32 16.34 -3 16 C-3 15.34 -3 14.68 -3 14 C-3.66 14 -4.32 14 -5 14 C-5 13.34 -5 12.68 -5 12 C-3.68 11.67 -2.36 11.34 -1 11 C-1 10.34 -1 9.68 -1 9 C0.65 9 2.3 9 4 9 C3.67 8.67 3.34 8.34 3 8 C2.67 7.01 2.34 6.02 2 5 C1.3400321 3.33066942 0.67441131 1.6635479 0 0 Z " fill="#DCD4C0" transform="translate(303,313)"/>
<path d="M0 0 C2.4375 0.75 2.4375 0.75 5 2 C5.8125 4.125 5.8125 4.125 6 6 C6.86625 6.185625 6.86625 6.185625 7.75 6.375 C11.94190871 7.53941909 11.94190871 7.53941909 14 9 C15.03485877 11.31808364 16.0355414 13.65175298 17 16 C17.99 16.66 18.98 17.32 20 18 C19.34 18.66 18.68 19.32 18 20 C15.375 19.625 15.375 19.625 13 19 C13 19.66 13 20.32 13 21 C11.02 21.33 9.04 21.66 7 22 C6.67 21.01 6.34 20.02 6 19 C5.34 19 4.68 19 4 19 C4 18.34 4 17.68 4 17 C3.34 17 2.68 17 2 17 C1.67 15.35 1.34 13.7 1 12 C0.34 12 -0.32 12 -1 12 C-1.33 11.01 -1.66 10.02 -2 9 C-2.99 8.67 -3.98 8.34 -5 8 C-5 7.34 -5 6.68 -5 6 C-5.66 6 -6.32 6 -7 6 C-6.67 5.01 -6.34 4.02 -6 3 C-5.01 3.33 -4.02 3.66 -3 4 C-0.94729537 2.15811388 -0.94729537 2.15811388 0 0 Z " fill="#F3E7D0" transform="translate(289,303)"/>
<path d="M0 0 C5.58544228 4.92833142 10.80059697 11.57348155 11.875 19.125 C11.91625 20.07375 11.9575 21.0225 12 22 C9.66666667 22 7.33333333 22 5 22 C4.67 22.66 4.34 23.32 4 24 C3.01 23.34 2.02 22.68 1 22 C1 23.32 1 24.64 1 26 C-14.51 26 -30.02 26 -46 26 C-45.67 25.34 -45.34 24.68 -45 24 C-30.15 24.33 -15.3 24.66 0 25 C-2.5384943 18.11253737 -2.5384943 18.11253737 -6 12 C-4.35 12 -2.7 12 -1 12 C-0.22596442 7.93631321 0.0984702 4.13574827 0 0 Z " fill="#C9C4B1" transform="translate(274,196)"/>
<path d="M0 0 C4.5036667 2.14709691 7.74314221 6.28774253 11.015625 9.9609375 C10.025625 10.4559375 10.025625 10.4559375 9.015625 10.9609375 C8.850625 11.6209375 8.685625 12.2809375 8.515625 12.9609375 C8.350625 13.6209375 8.185625 14.2809375 8.015625 14.9609375 C7.025625 15.4559375 7.025625 15.4559375 6.015625 15.9609375 C6.015625 15.3009375 6.015625 14.6409375 6.015625 13.9609375 C5.025625 13.9609375 4.035625 13.9609375 3.015625 13.9609375 C3.510625 14.8684375 4.005625 15.7759375 4.515625 16.7109375 C6.015625 19.9609375 6.015625 19.9609375 6.015625 23.9609375 C6.675625 23.9609375 7.335625 23.9609375 8.015625 23.9609375 C7.890625 26.2734375 7.890625 26.2734375 7.015625 28.9609375 C3.953125 30.7734375 3.953125 30.7734375 1.015625 31.9609375 C2.21943948 29.46732179 3.46991222 27.27950667 5.015625 24.9609375 C2.07738903 19.43014038 -2.13548212 14.68917139 -6.64453125 10.37109375 C-8.61187436 8.30050815 -8.91533536 6.79156254 -8.984375 3.9609375 C-6.67223123 0.3000432 -4.34496251 -0.85010136 0 0 Z " fill="#DED6C0" transform="translate(221.984375,172.0390625)"/>
<path d="M0 0 C0.8125 1.625 0.8125 1.625 1 4 C-0.46818136 6.24609835 -2.15852858 8.02378677 -4 10 C-3.649375 10.53625 -3.29875 11.0725 -2.9375 11.625 C-1.71075751 14.73274763 -2.27143569 16.79431703 -3 20 C-2.01 20.33 -1.02 20.66 0 21 C-2.11655028 24.17482542 -3.32556668 25.77518889 -7 27 C-10 27 -10 27 -12.375 26 C-14 24 -14 24 -14.375 20.5 C-14 17 -14 17 -12 14 C-11.34 14 -10.68 14 -10 14 C-9.61521484 13.12021484 -9.61521484 13.12021484 -9.22265625 12.22265625 C-7.89510249 9.80930773 -6.44491314 8.31080621 -4.4375 6.4375 C-2.00373705 4.1656506 -1.07740206 3.23220618 0 0 Z " fill="#DAD2C0" transform="translate(204,277)"/>
<path d="M0 0 C0.99 0 1.98 0 3 0 C3 1.98 3 3.96 3 6 C4.65 6 6.3 6 8 6 C8.33 6.99 8.66 7.98 9 9 C9.99 9.66 10.98 10.32 12 11 C12 12.32 12 13.64 12 15 C12.33 15.99 12.66 16.98 13 18 C12.34 18 11.68 18 11 18 C10.67 19.32 10.34 20.64 10 22 C9.01 21.67 8.02 21.34 7 21 C7 20.34 7 19.68 7 19 C6.34 19 5.68 19 5 19 C5 18.34 5 17.68 5 17 C4.360625 16.896875 3.72125 16.79375 3.0625 16.6875 C2.381875 16.460625 1.70125 16.23375 1 16 C0.67 15.01 0.34 14.02 0 13 C-1.99665314 11.31461399 -1.99665314 11.31461399 -4 10 C-3.67 8.35 -3.34 6.7 -3 5 C-2.01 4.67 -1.02 4.34 0 4 C0 2.68 0 1.36 0 0 Z " fill="#FAECD4" transform="translate(318,331)"/>
<path d="M0 0 C0.33 0.66 0.66 1.32 1 2 C1.66 2 2.32 2 3 2 C3.0809313 4.60478883 3.14045434 7.20706653 3.1875 9.8125 C3.22520508 10.91948242 3.22520508 10.91948242 3.26367188 12.04882812 C3.33720019 17.46541433 3.33720019 17.46541433 1.71875 20.03125 C-1.18369209 21.6671719 -3.86886922 20.64985733 -7 20 C-8.37395399 15.46595182 -7.67510452 12.38717851 -6 8 C-4 5.5625 -4 5.5625 -2 4 C-1.34 4 -0.68 4 0 4 C0 2.68 0 1.36 0 0 Z " fill="#58D4A8" transform="translate(329,228)"/>
<path d="M0 0 C0.99 0.33 1.98 0.66 3 1 C3.144375 2.051875 3.28875 3.10375 3.4375 4.1875 C3.87526966 7.15460549 4.37804866 10.06794366 5 13 C0.90909091 15.72727273 0.90909091 15.72727273 -2 16 C-4.53089366 14.15050079 -5.91700594 11.91575323 -7 9 C-7.32142857 3.64285714 -7.32142857 3.64285714 -6 1 C-3.03 1.495 -3.03 1.495 0 2 C0 1.34 0 0.68 0 0 Z " fill="#56D1A8" transform="translate(319,204)"/>
<path d="M0 0 C2 1 2 1 3.125 4.0625 C3.41375 5.031875 3.7025 6.00125 4 7 C4.66 7 5.32 7 6 7 C7.37310707 8.29233607 8.71034824 9.62437146 10 11 C10.66 8.69 11.32 6.38 12 4 C12.99 4.33 13.98 4.66 15 5 C15 4.01 15 3.02 15 2 C15.66 2 16.32 2 17 2 C18.7265625 4.1875 18.7265625 4.1875 20.625 7 C21.57246094 8.3921875 21.57246094 8.3921875 22.5390625 9.8125 C23.26222656 10.8953125 23.26222656 10.8953125 24 12 C23.67 12.66 23.34 13.32 23 14 C19.15393275 14.08944342 15.75316408 13.81149494 12 13 C11.01 13 10.02 13 9 13 C8.67 13.66 8.34 14.32 8 15 C6.46395285 13.2633385 4.94654837 11.51017245 3.4375 9.75 C2.59058594 8.77546875 1.74367188 7.8009375 0.87109375 6.796875 C-1 4 -1 4 -0.77734375 1.640625 C-0.52082031 1.09921875 -0.26429687 0.5578125 0 0 Z " fill="#EADEC8" transform="translate(88,248)"/>
<path d="M0 0 C0 0.99 0 1.98 0 3 C0.99 3.33 1.98 3.66 3 4 C3 4.66 3 5.32 3 6 C3.61875 5.814375 4.2375 5.62875 4.875 5.4375 C7 5 7 5 9 6 C9 6.66 9 7.32 9 8 C8.01 8.33 7.02 8.66 6 9 C5.67 9.99 5.34 10.98 5 12 C3.25 13.8125 3.25 13.8125 1 15 C-1.625 14.25 -1.625 14.25 -4 13 C-4.66 12.67 -5.32 12.34 -6 12 C-5 9 -5 9 -4 8 C-4.99 8 -5.98 8 -7 8 C-4.73913043 0 -4.73913043 0 0 0 Z " fill="#FAEED5" transform="translate(347,165)"/>
<path d="M0 0 C0 0.99 0 1.98 0 3 C0.66 3 1.32 3 2 3 C2.33 4.32 2.66 5.64 3 7 C4.32 7.33 5.64 7.66 7 8 C7.22114415 10.79119779 7.42743301 13.5821212 7.625 16.375 C7.68945312 17.1690625 7.75390625 17.963125 7.8203125 18.78125 C7.96058587 20.85028224 7.98758237 22.92625536 8 25 C7.34 25.66 6.68 26.32 6 27 C6 22.05 6 17.1 6 12 C4.35 12.66 2.7 13.32 1 14 C0.01 14.33 -0.98 14.66 -2 15 C-2.33 15.99 -2.66 16.98 -3 18 C-4.49594333 13.32517708 -4.54799337 8.64398011 -3 4 C-4.98 4.66 -6.96 5.32 -9 6 C-4.38461538 0 -4.38461538 0 0 0 Z " fill="#C7C1AE" transform="translate(197,250)"/>
<path d="M0 0 C0.99 0.66 1.98 1.32 3 2 C3 2.66 3 3.32 3 4 C3.66 4.33 4.32 4.66 5 5 C5 4.34 5 3.68 5 3 C5.99 3 6.98 3 8 3 C7.75206292 6.34715058 6.696823 7.31727825 4.3125 9.8125 C1 12 1 12 -2.1875 12.0625 C-5 11 -5 11 -7 9.3125 C-8 7 -8 7 -7.1875 3.75 C-6.795625 2.8425 -6.40375 1.935 -6 1 C-5.01 1.66 -4.02 2.32 -3 3 C-2.01 2.67 -1.02 2.34 0 2 C0 1.34 0 0.68 0 0 Z " fill="#D8D3C0" transform="translate(184,264)"/>
<path d="M0 0 C2.875 0.25 2.875 0.25 6 1 C8.16898181 3.85911239 8 5.28443578 8 9 C7.01 9.66 6.02 10.32 5 11 C4.27617533 13.05925139 4.27617533 13.05925139 4 15 C4.99 15.33 5.98 15.66 7 16 C9 18 9 18 9 20 C8.34 20 7.68 20 7 20 C7 19.34 7 18.68 7 18 C6.34 18 5.68 18 5 18 C5 17.34 5 16.68 5 16 C4.34 16 3.68 16 3 16 C3 15.34 3 14.68 3 14 C2.34 14 1.68 14 1 14 C1 13.34 1 12.68 1 12 C0.34 12 -0.32 12 -1 12 C-1 11.34 -1 10.68 -1 10 C-1.66 10 -2.32 10 -3 10 C-3.33 8.68 -3.66 7.36 -4 6 C-2.35 5.01 -0.7 4.02 1 3 C0.67 2.01 0.34 1.02 0 0 Z " fill="#E1D8C3" transform="translate(310,326)"/>
<path d="M0 0 C0.33 0.66 0.66 1.32 1 2 C1.66 2 2.32 2 3 2 C3.33 3.32 3.66 4.64 4 6 C3.01 5.67 2.02 5.34 1 5 C1.33 6.32 1.66 7.64 2 9 C0.906875 9.103125 -0.18625 9.20625 -1.3125 9.3125 C-4.85559629 9.97307727 -5.93243723 10.2027092 -8 13 C-8.99 12.67 -9.98 12.34 -11 12 C-11.25 6.375 -11.25 6.375 -9 3 C-2.77777778 0 -2.77777778 0 0 0 Z " fill="#ECE1C8" transform="translate(231,201)"/>
<path d="M0 0 C0.66 1.32 1.32 2.64 2 4 C3.32 4 4.64 4 6 4 C6.33 3.01 6.66 2.02 7 1 C9.31 1 11.62 1 14 1 C13.01 3.97 12.02 6.94 11 10 C10.34 9.34 9.68 8.68 9 8 C7.07864971 7.86300522 7.07864971 7.86300522 5 8.1875 C4.29875 8.26355469 3.5975 8.33960938 2.875 8.41796875 C0.6075929 8.90589635 0.6075929 8.90589635 -1 12 C-1.45139459 14.0492094 -1.45139459 14.0492094 -1.625 16.1875 C-1.74875 17.445625 -1.8725 18.70375 -2 20 C-2.99 19.34 -3.98 18.68 -5 18 C-5 17.34 -5 16.68 -5 16 C-4.34 16 -3.68 16 -3 16 C-2.95101562 15.26394531 -2.90203125 14.52789062 -2.8515625 13.76953125 C-2.77679688 12.79371094 -2.70203125 11.81789062 -2.625 10.8125 C-2.55539063 9.84957031 -2.48578125 8.88664063 -2.4140625 7.89453125 C-1.99784147 4.98491062 -1.20125904 2.67109226 0 0 Z " fill="#CCC6B2" transform="translate(219,209)"/>
<path d="M0 0 C1.14926266 0.95421808 2.29430541 1.91352045 3.4375 2.875 C4.39462891 3.67550781 4.39462891 3.67550781 5.37109375 4.4921875 C7.70433329 6.65197279 7.97741558 7.73463301 8.25 10.9375 C8 14 8 14 6.875 15.875 C4.18282457 17.49030526 2.07846795 17.26199727 -1 17 C-1.66 16.67 -2.32 16.34 -3 16 C-3 15.34 -3 14.68 -3 14 C-3.66 14 -4.32 14 -5 14 C-4.67 13.34 -4.34 12.68 -4 12 C-2.02 12.66 -0.04 13.32 2 14 C2 13.01 2 12.02 2 11 C2.66 11 3.32 11 4 11 C3.67 10.34 3.34 9.68 3 9 C2.01 8.67 1.02 8.34 0 8 C-0.79953138 4.71303767 -1.09658936 3.28976808 0 0 Z " fill="#C9C5B7" transform="translate(318,259)"/>
<path d="M0 0 C2.80507852 1.40253926 3.01169058 3.10566526 4 6 C4 6.66 4 7.32 4 8 C4.185625 8.680625 4.37125 9.36125 4.5625 10.0625 C4.706875 10.701875 4.85125 11.34125 5 12 C4 13 4 13 1.5625 13.25 C0.716875 13.1675 -0.12875 13.085 -1 13 C-1.66 12.01 -2.32 11.02 -3 10 C-3.99 10.495 -3.99 10.495 -5 11 C-5 10.34 -5 9.68 -5 9 C-6.32 8.34 -7.64 7.68 -9 7 C-6.60490662 4.10067643 -4.68754757 3.49831724 -1 3 C-0.67 2.01 -0.34 1.02 0 0 Z " fill="#FBEDD5" transform="translate(347,306)"/>
<path d="M0 0 C3.03336186 -0.22893297 5.97465051 -0.36475845 9 0 C11.0625 2 11.0625 2 12 4 C10.60624928 6.78750144 8.83755139 6.89266287 6 8 C5.34 8.66 4.68 9.32 4 10 C2.68 10 1.36 10 0 10 C0 9.34 0 8.68 0 8 C-0.99 7.67 -1.98 7.34 -3 7 C-2.01 6.67 -1.02 6.34 0 6 C0.33 5.01 0.66 4.02 1 3 C1.33 2.67 1.66 2.34 2 2 C1.34 1.34 0.68 0.68 0 0 Z " fill="#F2E5CE" transform="translate(300,250)"/>
<path d="M0 0 C2.5 2.3125 2.5 2.3125 5 5 C5 5.99 5 6.98 5 8 C0.25 9.125 0.25 9.125 -2 8 C-2.33 10.31 -2.66 12.62 -3 15 C-5.66666667 11.66666667 -8.33333333 8.33333333 -11 5 C-7.7 5 -4.4 5 -1 5 C-0.67 3.35 -0.34 1.7 0 0 Z " fill="#51BE9A" transform="translate(315,197)"/>
<path d="M0 0 C0.226875 0.61875 0.45375 1.2375 0.6875 1.875 C2.37929835 4.61410209 3.99244161 5.05024472 7 6 C6.67 6.99 6.34 7.98 6 9 C5.67 8.34 5.34 7.68 5 7 C4.34 7 3.68 7 3 7 C3.33 7.99 3.66 8.98 4 10 C3.34 10 2.68 10 2 10 C1.67 11.32 1.34 12.64 1 14 C-2.36179774 12.55922954 -4.59156268 10.75249979 -7 8 C-7 7.34 -7 6.68 -7 6 C-5.68 6 -4.36 6 -3 6 C-2.01 4.02 -1.02 2.04 0 0 Z " fill="#FBEFD7" transform="translate(97,245)"/>
<path d="M0 0 C0.33 0.99 0.66 1.98 1 3 C0.01 3.33 -0.98 3.66 -2 4 C-1.67 4.99 -1.34 5.98 -1 7 C-2.82194812 9.57585768 -4.77124444 11.77124444 -7 14 C-7.66 13.67 -8.32 13.34 -9 13 C-9.33 13.66 -9.66 14.32 -10 15 C-10.66 15 -11.32 15 -12 15 C-13.36161311 15.96113866 -14.69855198 16.95884159 -16 18 C-16.66 17.34 -17.32 16.68 -18 16 C-16.625 14.5 -16.625 14.5 -15 13 C-14.34 13 -13.68 13 -13 13 C-13 12.34 -13 11.68 -13 11 C-7.52380952 6 -7.52380952 6 -5 6 C-5 5.34 -5 4.68 -5 4 C-3.37373596 2.61767557 -1.7074998 1.28062485 0 0 Z " fill="#D4CFBF" transform="translate(365,289)"/>
<path d="M0 0 C4.72863226 1.38597842 5.84326235 3.10063122 8.625 7.0625 C6.8125 7.6875 6.8125 7.6875 4.625 8.0625 C3.635 7.4025 2.645 6.7425 1.625 6.0625 C1.625 5.4025 1.625 4.7425 1.625 4.0625 C0.965 4.0625 0.305 4.0625 -0.375 4.0625 C-0.705 5.0525 -1.035 6.0425 -1.375 7.0625 C-2.365 7.5575 -2.365 7.5575 -3.375 8.0625 C-3.375 9.0525 -3.375 10.0425 -3.375 11.0625 C-4.035 11.0625 -4.695 11.0625 -5.375 11.0625 C-6.70289969 8.8753711 -7.42252686 7.58529544 -7.1875 5 C-5.50822716 0.99558016 -4.48013964 0.08296555 0 0 Z " fill="#E3DCC8" transform="translate(220.375,171.9375)"/>
<path d="M0 0 C2.375 2.5625 2.375 2.5625 4 5 C3.34 5 2.68 5 2 5 C1.67 5.99 1.34 6.98 1 8 C0.34 7.67 -0.32 7.34 -1 7 C-1 6.34 -1 5.68 -1 5 C-3.31 5.33 -5.62 5.66 -8 6 C-8.33 7.32 -8.66 8.64 -9 10 C-11 7 -11 7 -10.875 4.5 C-8.91940595 -1.08741156 -5.34109559 -1.7803652 0 0 Z " fill="#BBB9A9" transform="translate(193,213)"/>
<path d="M0 0 C0.66 0 1.32 0 2 0 C2.33 0.99 2.66 1.98 3 3 C5.31690792 4.3988878 7.62321874 5.71539393 10 7 C12.96025123 8.79173101 13.80998716 9.31912067 14.75 12.6875 C14.87375 13.8321875 14.87375 13.8321875 15 15 C15.99 15 16.98 15 18 15 C18.33 16.98 18.66 18.96 19 21 C11.84198775 15.17371096 5.47408234 8.5617015 -1 2 C-0.67 1.34 -0.34 0.68 0 0 Z " fill="#CEC7B8" transform="translate(301,298)"/>
<path d="M0 0 C0.33 0 0.66 0 1 0 C1.71564815 4.69147122 2.2520747 8.36732362 1 13 C0.7834375 14.2684375 0.7834375 14.2684375 0.5625 15.5625 C0.00704803 17.96945855 -0.80481855 19.84867339 -2 22 C-3.5625 20.875 -3.5625 20.875 -5 19 C-4.71325582 16.99279077 -4.38133299 14.9914056 -4 13 C-4.66 12.34 -5.32 11.68 -6 11 C-5.195625 10.113125 -4.39125 9.22625 -3.5625 8.3125 C-1.2960841 5.61712968 -0.31582634 3.57936522 0 0 Z " fill="#FAEED7" transform="translate(205,276)"/>
<path d="M0 0 C2.97 0.33 5.94 0.66 9 1 C9 1.33 9 1.66 9 2 C-8.62866101 4.65637358 -27.40921022 5.20865225 -45 2 C-45 1.67 -45 1.34 -45 1 C-30.15 1.33 -15.3 1.66 0 2 C0 1.34 0 0.68 0 0 Z " fill="#ABACA2" transform="translate(270,350)"/>
<path d="M0 0 C4 6 4 6 3.625 8.6875 C3.41875 9.450625 3.2125 10.21375 3 11 C-0.37817425 11.84454356 -2.67465243 12.10844919 -6 11 C-5.67 10.34 -5.34 9.68 -5 9 C-5.99 8.67 -6.98 8.34 -8 8 C-6.35 8 -4.7 8 -3 8 C-2.87625 7.4225 -2.7525 6.845 -2.625 6.25 C-1.99351176 3.97664233 -1.11141809 2.0746471 0 0 Z " fill="#FCEFD6" transform="translate(160,283)"/>
<path d="M0 0 C1.65 0 3.3 0 5 0 C4.01 0.495 4.01 0.495 3 1 C3.66 2.65 4.32 4.3 5 6 C5.99 6 6.98 6 8 6 C8 6.99 8 7.98 8 9 C7.34 9 6.68 9 6 9 C6 9.99 6 10.98 6 12 C3.125 11.75 3.125 11.75 0 11 C-1.375 8.9375 -1.375 8.9375 -2 7 C-0.68 5.02 0.64 3.04 2 1 C1.34 0.67 0.68 0.34 0 0 Z " fill="#FBEED6" transform="translate(314,261)"/>
<path d="M0 0 C1.1034375 -0.00257813 2.206875 -0.00515625 3.34375 -0.0078125 C6.18492244 0.11174179 8.73807642 0.47574185 11.5 1.125 C11.83 2.115 12.16 3.105 12.5 4.125 C11.571875 3.795 10.64375 3.465 9.6875 3.125 C3.20090795 1.31295607 -3.70518711 0.91255676 -9.875 3.875 C-12.98977521 5.6695207 -15.79207451 7.7555652 -18.5 10.125 C-18.83 8.805 -19.16 7.485 -19.5 6.125 C-18.84 5.795 -18.18 5.465 -17.5 5.125 C-17.17 4.465 -16.84 3.805 -16.5 3.125 C-14.85 3.125 -13.2 3.125 -11.5 3.125 C-11.5 2.465 -11.5 1.805 -11.5 1.125 C-7.61122133 0.21084681 -3.99090618 -0.00932455 0 0 Z " fill="#868C82" transform="translate(251.5,199.875)"/>
<path d="M0 0 C5.94 3.465 5.94 3.465 12 7 C9.03549787 7.98816738 7.08189674 8.07704742 4 8 C3.01 8 2.02 8 1 8 C0.67 5.36 0.34 2.72 0 0 Z M0 9 C0.99 9.33 1.98 9.66 3 10 C2.01 11.485 2.01 11.485 1 13 C1.33 13.99 1.66 14.98 2 16 C1.01 16 0.02 16 -1 16 C-1 15.34 -1 14.68 -1 14 C-1.99 13.67 -2.98 13.34 -4 13 C-3.01 12.67 -2.02 12.34 -1 12 C-0.67 11.01 -0.34 10.02 0 9 Z " fill="#C6C1B1" transform="translate(226,294)"/>
<path d="M0 0 C0.8125 1.625 0.8125 1.625 1 4 C-0.46818136 6.24609835 -2.15852858 8.02378677 -4 10 C-3.649375 10.598125 -3.29875 11.19625 -2.9375 11.8125 C-2 14 -2 14 -3 17 C-5.0625 17.6875 -5.0625 17.6875 -7 18 C-7.33 17.01 -7.66 16.02 -8 15 C-8.66 14.67 -9.32 14.34 -10 14 C-8.60669258 10.8142971 -6.97103262 8.80177783 -4.4375 6.4375 C-2.00373705 4.1656506 -1.07740206 3.23220618 0 0 Z " fill="#E7DBC5" transform="translate(204,277)"/>
<path d="M0 0 C-0.99 1.98 -1.98 3.96 -3 6 C-4.65 5.01 -6.3 4.02 -8 3 C-7.01 5.97 -6.02 8.94 -5 12 C-7.5625 9.9375 -7.5625 9.9375 -10 7 C-9.9375 3.25 -9.9375 3.25 -9 0 C-5.93109813 -1.53445094 -3.29905734 -0.54984289 0 0 Z " fill="#55B597" transform="translate(309,190)"/>
<path d="M0 0 C0.33 0 0.66 0 1 0 C1.0809313 2.60478883 1.14045434 5.20706653 1.1875 7.8125 C1.22520508 8.91948242 1.22520508 8.91948242 1.26367188 10.04882812 C1.33720019 15.46541433 1.33720019 15.46541433 -0.28125 18.03125 C-3.18369209 19.6671719 -5.86886922 18.64985733 -9 18 C-9 17.01 -9 16.02 -9 15 C-6.69 15 -4.38 15 -2 15 C-1.34 10.05 -0.68 5.1 0 0 Z " fill="#4DA88B" transform="translate(331,230)"/>
<path d="M0 0 C0 3 0 3 -1.6875 5.1875 C-4.3961577 7.31050198 -5.64708882 7.37254569 -9 7 C-9.33 7.99 -9.66 8.98 -10 10 C-12.31 10.33 -14.62 10.66 -17 11 C-12.64038511 6.07173969 -6.57844865 1.24093463 0 0 Z " fill="#CFCCBE" transform="translate(168,157)"/>
<path d="M0 0 C0.45375 0.495 0.9075 0.99 1.375 1.5 C3.12128967 3.45218674 3.12128967 3.45218674 7 3 C7 3.66 7 4.32 7 5 C4.36 5.33 1.72 5.66 -1 6 C-1 6.99 -1 7.98 -1 9 C-2.32 8.67 -3.64 8.34 -5 8 C-5.75 6.25 -5.75 6.25 -6 4 C-2.77777778 0 -2.77777778 0 0 0 Z " fill="#FBEFD5" transform="translate(222,176)"/>
<path d="M0 0 C0.99 0.495 0.99 0.495 2 1 C2 1.66 2 2.32 2 3 C2.57234375 3.24492187 3.1446875 3.48984375 3.734375 3.7421875 C6.38024402 5.21110099 8.14853139 6.95348244 10.25 9.125 C10.95640625 9.84945313 11.6628125 10.57390625 12.390625 11.3203125 C13.18726563 12.15175781 13.18726563 12.15175781 14 13 C12 13.66666667 10 14.33333333 8 15 C7.731875 14.236875 7.46375 13.47375 7.1875 12.6875 C6.0364442 10.08247899 5.19546244 8.75636995 3 7 C2.01 6.67 1.02 6.34 0 6 C0 4.02 0 2.04 0 0 Z " fill="#BEBBAC" transform="translate(321,331)"/>
<path d="M0 0 C4.8 3.44615385 4.8 3.44615385 5.8125 6.25 C5.874375 6.8275 5.93625 7.405 6 8 C5.01 7.67 4.02 7.34 3 7 C2.67 6.01 2.34 5.02 2 4 C1.01 4.495 1.01 4.495 0 5 C0 3.35 0 1.7 0 0 Z M-5 3 C-2.525 3.99 -2.525 3.99 0 5 C-0.33 5.66 -0.66 6.32 -1 7 C-1.66 7 -2.32 7 -3 7 C-3.33 9.31 -3.66 11.62 -4 14 C-5.37562854 12.71034824 -6.70766393 11.37310707 -8 10 C-8 9.34 -8 8.68 -8 8 C-7.34 8 -6.68 8 -6 8 C-5.67 6.35 -5.34 4.7 -5 3 Z " fill="#CBC6B5" transform="translate(350,332)"/>
<path d="M0 0 C1.79244141 0.24556641 1.79244141 0.24556641 3.62109375 0.49609375 C10.09417807 1.21532534 16.55789325 1.10745475 23.0625 1.0625 C24.30966797 1.05798828 25.55683594 1.05347656 26.84179688 1.04882812 C29.89458221 1.03713163 32.94726498 1.02074086 36 1 C36.495 1.99 36.495 1.99 37 3 C32.81934962 3.16829455 28.63849262 3.32877828 24.45727539 3.48217773 C23.03629587 3.5353937 21.61539319 3.59070571 20.19458008 3.64819336 C18.14681561 3.73067774 16.09888898 3.80550405 14.05078125 3.87890625 C12.82012939 3.9260376 11.58947754 3.97316895 10.3215332 4.02172852 C7.37091647 4.00242643 4.85421437 3.70348686 2 3 C2 2.34 2 1.68 2 1 C1.34 0.67 0.68 0.34 0 0 Z " fill="#8A9084" transform="translate(229,337)"/>
<path d="M0 0 C0.66 0.99 1.32 1.98 2 3 C2.33 2.34 2.66 1.68 3 1 C3.66 1 4.32 1 5 1 C5.66 2.65 6.32 4.3 7 6 C5.68 7.65 4.36 9.3 3 11 C1 10 1 10 -1 7 C-1.39013716 5.0103005 -1.73202649 3.00980131 -2 1 C-1.34 0.67 -0.68 0.34 0 0 Z " fill="#FBEED5" transform="translate(192,217)"/>
<path d="M0 0 C0.9075 0.165 1.815 0.33 2.75 0.5 C3.41 1.49 4.07 2.48 4.75 3.5 C2.11 3.17 -0.53 2.84 -3.25 2.5 C-3.91 4.81 -4.57 7.12 -5.25 9.5 C-6.9 9.17 -8.55 8.84 -10.25 8.5 C-10.25 9.16 -10.25 9.82 -10.25 10.5 C-11.24 10.83 -12.23 11.16 -13.25 11.5 C-13.25 10.84 -13.25 10.18 -13.25 9.5 C-12.59 9.5 -11.93 9.5 -11.25 9.5 C-11.04375 8.943125 -10.8375 8.38625 -10.625 7.8125 C-8.06360176 3.50469386 -4.99647656 0.7686887 0 0 Z " fill="#ADB1A6" transform="translate(283.25,171.5)"/>
<path d="M0 0 C0.66 0 1.32 0 2 0 C2 2.97 2 5.94 2 9 C1.34 9 0.68 9 0 9 C-0.33 9.66 -0.66 10.32 -1 11 C-3 11 -3 11 -5.125 9.1875 C-7 7 -7 7 -7 4 C-4.69 4 -2.38 4 0 4 C0 2.68 0 1.36 0 0 Z " fill="#FCF0DD" transform="translate(204,246)"/>
<path d="M0 0 C6.41868512 -0.3633218 6.41868512 -0.3633218 9 1.25 C10 3 10 3 9.6875 5.1875 C9.3471875 6.0846875 9.3471875 6.0846875 9 7 C7.02 6.34 5.04 5.68 3 5 C3 4.34 3 3.68 3 3 C2.01 2.67 1.02 2.34 0 2 C0 1.34 0 0.68 0 0 Z " fill="#FCEED9" transform="translate(149,314)"/>
<path d="M0 0 C0.66 0 1.32 0 2 0 C1.67 2.97 1.34 5.94 1 9 C0.01 9 -0.98 9 -2 9 C-1.938125 9.94875 -1.87625 10.8975 -1.8125 11.875 C-1.874375 12.90625 -1.93625 13.9375 -2 15 C-2.99 15.66 -3.98 16.32 -5 17 C-4.46246904 10.81839396 -2.45417612 5.673142 0 0 Z " fill="#AFB2A6" transform="translate(346,270)"/>
<path d="M0 0 C4.15151338 1.44202476 7.29978445 3.5010438 10.8125 6.125 C11.78832031 6.84945312 12.76414062 7.57390625 13.76953125 8.3203125 C14.50558594 8.87460938 15.24164063 9.42890625 16 10 C13.92446352 10.5534764 12.15634036 11 10 11 C8.375 9.6875 8.375 9.6875 7 8 C7 7.01 7 6.02 7 5 C6.21625 4.9175 5.4325 4.835 4.625 4.75 C2 4 2 4 0.6875 1.9375 C0.460625 1.298125 0.23375 0.65875 0 0 Z " fill="#A6A99C" transform="translate(340,160)"/>
<path d="M0 0 C0.33 0 0.66 0 1 0 C1.33663062 3.70293685 1.47736015 5.39534381 -0.875 8.375 C-3 10 -3 10 -5 10 C-5.28875 10.639375 -5.5775 11.27875 -5.875 11.9375 C-7 14 -7 14 -9 15 C-9 13.68 -9 12.36 -9 11 C-8.01 11 -7.02 11 -6 11 C-6 9.68 -6 8.36 -6 7 C-3.5625 4.375 -3.5625 4.375 -1 2 C-0.67 1.34 -0.34 0.68 0 0 Z " fill="#AEABA3" transform="translate(288,175)"/>
<path d="M0 0 C1 3 1 3 1 6 C-3.625 8.125 -3.625 8.125 -7 7 C-7 6.34 -7 5.68 -7 5 C-6.34 5 -5.68 5 -5 5 C-4.67 4.01 -4.34 3.02 -4 2 C-1.9375 0.8125 -1.9375 0.8125 0 0 Z " fill="#FCEFD6" transform="translate(395,260)"/>
<path d="M0 0 C2 1 2 1 3.125 3.875 C4.45264471 8.84329545 4.16599322 13.90031948 4 19 C3.67 19 3.34 19 3 19 C-0.44419134 6.51480638 -0.44419134 6.51480638 0 0 Z " fill="#BDB7AE" transform="translate(345,208)"/>
<path d="M0 0 C2 1 2 1 3.125 4.0625 C3.41375 5.031875 3.7025 6.00125 4 7 C4.66 7 5.32 7 6 7 C7.6875 9.3125 7.6875 9.3125 9 12 C8.67 12.99 8.34 13.98 8 15 C6.46395285 13.2633385 4.94654837 11.51017245 3.4375 9.75 C2.59058594 8.77546875 1.74367188 7.8009375 0.87109375 6.796875 C-1 4 -1 4 -0.77734375 1.640625 C-0.52082031 1.09921875 -0.26429687 0.5578125 0 0 Z " fill="#B4B5A7" transform="translate(88,248)"/>
<path d="M0 0 C2 3.75 2 3.75 2 6 C1.34 6 0.68 6 0 6 C0 6.66 0 7.32 0 8 C-0.99 8.33 -1.98 8.66 -3 9 C-3.66 8.67 -4.32 8.34 -5 8 C-3.8141763 4.62496331 -2.72426311 2.35277269 0 0 Z " fill="#F9EBD1" transform="translate(273,200)"/>
<path d="M0 0 C0.66 0.33 1.32 0.66 2 1 C2 1.66 2 2.32 2 3 C2.66 3.66 3.32 4.32 4 5 C1.03 7.475 1.03 7.475 -2 10 C-3.125 4.375 -3.125 4.375 -2 1 C-1.34 0.67 -0.68 0.34 0 0 Z " fill="#CAC3B1" transform="translate(136,192)"/>
<path d="M0 0 C1.32 0 2.64 0 4 0 C4.33 0.99 4.66 1.98 5 3 C4.34 3 3.68 3 3 3 C2.67 4.32 2.34 5.64 2 7 C-0.02045442 6.39816251 -2.02111039 5.72693904 -4 5 C-4.33 4.34 -4.66 3.68 -5 3 C-3.68 3.33 -2.36 3.66 -1 4 C-0.67 2.68 -0.34 1.36 0 0 Z " fill="#E0D6C2" transform="translate(223,300)"/>
<path d="M0 0 C2.31 0.66 4.62 1.32 7 2 C7 2.99 7 3.98 7 5 C7.99 5.33 8.98 5.66 10 6 C9.67 7.32 9.34 8.64 9 10 C7.49702124 8.52386015 5.99768715 7.04400843 4.5 5.5625 C3.6646875 4.73878906 2.829375 3.91507812 1.96875 3.06640625 C0 1 0 1 0 0 Z " fill="#92958B" transform="translate(320,319)"/>
<path d="M0 0 C0.66 0.33 1.32 0.66 2 1 C2 1.99 2 2.98 2 4 C3.65 4 5.3 4 7 4 C5.68 5.32 4.36 6.64 3 8 C0.525 7.01 0.525 7.01 -2 6 C-1.34 4.02 -0.68 2.04 0 0 Z " fill="#DDD5C0" transform="translate(344,315)"/>
<path d="M0 0 C0.66 0 1.32 0 2 0 C2.66 1.65 3.32 3.3 4 5 C1.36 6.65 -1.28 8.3 -4 10 C-4 8.68 -4 7.36 -4 6 C-3.01 6 -2.02 6 -1 6 C-0.67 4.02 -0.34 2.04 0 0 Z " fill="#FCECD5" transform="translate(348,273)"/>
<path d="M0 0 C1.43739513 -0.02712066 2.87493863 -0.04645067 4.3125 -0.0625 C5.51326172 -0.07990234 5.51326172 -0.07990234 6.73828125 -0.09765625 C9 0 9 0 12 1 C11.67 1.99 11.34 2.98 11 4 C9.35 4.33 7.7 4.66 6 5 C6 4.34 6 3.68 6 3 C4.35 3 2.7 3 1 3 C0.67 2.01 0.34 1.02 0 0 Z " fill="#FDF0D7" transform="translate(96,260)"/>
<path d="M0 0 C1.65 0 3.3 0 5 0 C5 0.66 5 1.32 5 2 C6.32 2.33 7.64 2.66 9 3 C8.67 5.31 8.34 7.62 8 10 C5.33333333 6.66666667 2.66666667 3.33333333 0 0 Z " fill="#49A189" transform="translate(304,202)"/>
<path d="M0 0 C2.0625 0.4375 2.0625 0.4375 4 1 C4.66 3.31 5.32 5.62 6 8 C5.01 8 4.02 8 3 8 C3 7.01 3 6.02 3 5 C1.68 5.33 0.36 5.66 -1 6 C-1.042721 4.33388095 -1.04063832 2.66617115 -1 1 C-0.67 0.67 -0.34 0.34 0 0 Z " fill="#FBEFD7" transform="translate(153,271)"/>
<path d="M0 0 C0.66 0.99 1.32 1.98 2 3 C1.67 3.99 1.34 4.98 1 6 C-1.06640625 6.94921875 -1.06640625 6.94921875 -3.5625 7.6875 C-4.80193359 8.06455078 -4.80193359 8.06455078 -6.06640625 8.44921875 C-6.70449219 8.63097656 -7.34257812 8.81273437 -8 9 C-7.04270084 7.87411986 -6.08412105 6.7493285 -5.125 5.625 C-4.59132812 4.99851562 -4.05765625 4.37203125 -3.5078125 3.7265625 C-2.38567993 2.44163349 -1.20628025 1.20628025 0 0 Z " fill="#CBC5BA" transform="translate(187,256)"/>
<path d="M0 0 C0.66 0.33 1.32 0.66 2 1 C2 1.99 2 2.98 2 4 C2.66 4.66 3.32 5.32 4 6 C3.34 7.32 2.68 8.64 2 10 C0.29115995 8.37660195 -1.37446717 6.70680947 -3 5 C-3 3 -3 3 -1.5 1.375 C-1.005 0.92125 -0.51 0.4675 0 0 Z " fill="#D8D2C0" transform="translate(190,221)"/>
<path d="M0 0 C2.31 0.33 4.62 0.66 7 1 C3.44008172 3.96659857 -0.65222543 6.381348 -5 8 C-5.66 7.67 -6.32 7.34 -7 7 C-5.68 5.68 -4.36 4.36 -3 3 C-2.01 3.33 -1.02 3.66 0 4 C0 2.68 0 1.36 0 0 Z " fill="#9DA295" transform="translate(206,154)"/>
<path d="M0 0 C3.3 0 6.6 0 10 0 C10 0.99 10 1.98 10 3 C11.32 3 12.64 3 14 3 C14 3.66 14 4.32 14 5 C14.66 5.33 15.32 5.66 16 6 C10.30860098 4.90301833 5.25432063 3.45946923 0 1 C0 0.67 0 0.34 0 0 Z " fill="#99A095" transform="translate(188,340)"/>
<path d="M0 0 C0.66 0.33 1.32 0.66 2 1 C1.67 1.66 1.34 2.32 1 3 C0.34 3 -0.32 3 -1 3 C-0.67 3.99 -0.34 4.98 0 6 C-0.66 6 -1.32 6 -2 6 C-1.125 1.125 -1.125 1.125 0 0 Z M-4 5 C-3.34 5.66 -2.68 6.32 -2 7 C-2.375 9.125 -2.375 9.125 -3 11 C-4.32 10.67 -5.64 10.34 -7 10 C-5.125 6.125 -5.125 6.125 -4 5 Z M-8 11 C-6 12 -6 12 -6 12 Z " fill="#FAF0DB" transform="translate(334,298)"/>
<path d="M0 0 C0.66 0.33 1.32 0.66 2 1 C0.75 4.4375 0.75 4.4375 -1 8 C-2.9375 8.8125 -2.9375 8.8125 -5 9 C-6.3464069 9.63985208 -7.681858 10.30377886 -9 11 C-8.57847656 10.51789063 -8.15695312 10.03578125 -7.72265625 9.5390625 C-7.17480469 8.90742188 -6.62695312 8.27578125 -6.0625 7.625 C-5.51722656 6.99851562 -4.97195313 6.37203125 -4.41015625 5.7265625 C-2.93041376 4.04367666 -2.93041376 4.04367666 -2 2 C-1.34 2 -0.68 2 0 2 C0 1.34 0 0.68 0 0 Z " fill="#B8B7AF" transform="translate(375,278)"/>
<path d="M0 0 C1.65 0 3.3 0 5 0 C5.12375 1.134375 5.2475 2.26875 5.375 3.4375 C5.684375 5.2009375 5.684375 5.2009375 6 7 C6.66 7.33 7.32 7.66 8 8 C7.01 8 6.02 8 5 8 C5 7.34 5 6.68 5 6 C4.34 6 3.68 6 3 6 C0 2.53846154 0 2.53846154 0 0 Z " fill="#C3C6B4" transform="translate(97,263)"/>
<path d="M0 0 C2.31 1.98 4.62 3.96 7 6 C4.13822943 7.43088528 2.06624227 6.59991697 -1 6 C-1.33 6.99 -1.66 7.98 -2 9 C-2.99 8.67 -3.98 8.34 -5 8 C-4.34 8 -3.68 8 -3 8 C-3.33 6.68 -3.66 5.36 -4 4 C-2.68 3.34 -1.36 2.68 0 2 C0 1.34 0 0.68 0 0 Z " fill="#C0B9AA" transform="translate(311,252)"/>
<path d="M0 0 C3.65316671 1.24976756 4.78065836 1.67098753 7 5 C6.34 5.66 5.68 6.32 5 7 C3.68 7 2.36 7 1 7 C1 5.35 1 3.7 1 2 C0.34 1.67 -0.32 1.34 -1 1 C-0.67 0.67 -0.34 0.34 0 0 Z " fill="#F9ECD8" transform="translate(158,309)"/>
<path d="M0 0 C0.66 0.33 1.32 0.66 2 1 C2 3.31 2 5.62 2 8 C2.66 8.33 3.32 8.66 4 9 C1.03824877 8.38722388 -0.38058783 7.74627478 -3 6 C-2.67 4.68 -2.34 3.36 -2 2 C-1.34 2 -0.68 2 0 2 C0 1.34 0 0.68 0 0 Z " fill="#FDEDD0" transform="translate(311,298)"/>
<path d="M0 0 C1.65 0.33 3.3 0.66 5 1 C3.02 3.97 1.04 6.94 -1 10 C-2.10191901 5.59232396 -1.58706842 4.1077065 0 0 Z " fill="#C6C6B7" transform="translate(170,182)"/>
<path d="M0 0 C0.66 0.33 1.32 0.66 2 1 C1.8125 2.875 1.8125 2.875 1 5 C-1.375 6.3125 -1.375 6.3125 -4 7 C-4.99 6.67 -5.98 6.34 -7 6 C-6.34 4.68 -5.68 3.36 -5 2 C-3.35 2 -1.7 2 0 2 C0 1.34 0 0.68 0 0 Z " fill="#A8ABA0" transform="translate(306,339)"/>
<path d="M0 0 C0.66 0.33 1.32 0.66 2 1 C0.51643192 6.68701095 0.51643192 6.68701095 -2.0625 8.25 C-2.701875 8.4975 -3.34125 8.745 -4 9 C-4.33 9.66 -4.66 10.32 -5 11 C-5.66 10.67 -6.32 10.34 -7 10 C-3.535 5.05 -3.535 5.05 0 0 Z " fill="#ABB0A3" transform="translate(395,254)"/>
<path d="M0 0 C2.91316254 1.45658127 3.09207774 3.36160014 4.1875 6.375 C4.55230469 7.35210937 4.91710937 8.32921875 5.29296875 9.3359375 C6 12 6 12 5 15 C3.4375 13.8125 3.4375 13.8125 2 12 C2.3125 9.3125 2.3125 9.3125 3 7 C2.01 6.67 1.02 6.34 0 6 C0 4.02 0 2.04 0 0 Z " fill="#A0A299" transform="translate(353,199)"/>
<path d="M0 0 C3 2 3 2 3.6875 4.125 C3.790625 4.74375 3.89375 5.3625 4 6 C1.03 5.505 1.03 5.505 -2 5 C-2 5.66 -2 6.32 -2 7 C-2.66 6.67 -3.32 6.34 -4 6 C-2.25 1.125 -2.25 1.125 0 0 Z " fill="#E8DDCD" transform="translate(303,336)"/>
<path d="M0 0 C0.33 1.32 0.66 2.64 1 4 C0.01 3.67 -0.98 3.34 -2 3 C-1.67 4.32 -1.34 5.64 -1 7 C-2.65 7 -4.3 7 -6 7 C-5.6875 4.625 -5.6875 4.625 -5 2 C-2 0 -2 0 0 0 Z " fill="#FCEFD8" transform="translate(234,203)"/>
<path d="M0 0 C0 1.32 0 2.64 0 4 C-1.28745036 4.38922918 -2.58019597 4.76098036 -3.875 5.125 C-4.95394531 5.43824219 -4.95394531 5.43824219 -6.0546875 5.7578125 C-6.69664062 5.83773437 -7.33859375 5.91765625 -8 6 C-8.66 5.34 -9.32 4.68 -10 4 C-8.71086513 3.32845067 -7.41859796 2.66291141 -6.125 2 C-5.40570313 1.62875 -4.68640625 1.2575 -3.9453125 0.875 C-2 0 -2 0 0 0 Z " fill="#B6B6A6" transform="translate(181,150)"/>
<path d="M0 0 C2.97 0.33 5.94 0.66 9 1 C9 1.33 9 1.66 9 2 C-0.405 2.99 -0.405 2.99 -10 4 C-9.67 3.34 -9.34 2.68 -9 2 C-6.03 2 -3.06 2 0 2 C0 1.34 0 0.68 0 0 Z " fill="#87857D" transform="translate(270,350)"/>
<path d="M0 0 C0.99 0.33 1.98 0.66 3 1 C3.33 1.99 3.66 2.98 4 4 C4.99 4 5.98 4 7 4 C7.33 5.98 7.66 7.96 8 10 C6.84481082 9.09515208 5.70114594 8.1755794 4.5625 7.25 C3.60537109 6.48429687 3.60537109 6.48429687 2.62890625 5.703125 C0.81189446 3.80332371 0.39576803 2.56413092 0 0 Z " fill="#9A9B93" transform="translate(312,309)"/>
<path d="M0 0 C1.32 0 2.64 0 4 0 C5.60031344 3.20062687 4.03173691 5.72271806 3 9 C1.10786631 6.61426621 -0.02391783 4.92824652 -1 2 C-0.67 1.34 -0.34 0.68 0 0 Z " fill="#4DB796" transform="translate(313,210)"/>
<path d="M0 0 C2.0625 0.4375 2.0625 0.4375 4 1 C4 1.66 4 2.32 4 3 C3.34 3 2.68 3 2 3 C2 3.66 2 4.32 2 5 C1.34 5 0.68 5 0 5 C-0.33 5.99 -0.66 6.98 -1 8 C-1.33 8 -1.66 8 -2 8 C-1.125 1.125 -1.125 1.125 0 0 Z " fill="#B6B1A7" transform="translate(121,210)"/>
<path d="M0 0 C0.99 0.33 1.98 0.66 3 1 C1.02 3.31 -0.96 5.62 -3 8 C-3.66 6.68 -4.32 5.36 -5 4 C-4.0409375 3.8453125 -4.0409375 3.8453125 -3.0625 3.6875 C-2.381875 3.460625 -1.70125 3.23375 -1 3 C-0.67 2.01 -0.34 1.02 0 0 Z " fill="#B2B1A5" transform="translate(130,202)"/>
<path d="M0 0 C0.33 1.32 0.66 2.64 1 4 C-1.2551922 6.2551922 -3.0047587 6.97723468 -6 8 C-6.99 8 -7.98 8 -9 8 C-6.03 5.36 -3.06 2.72 0 0 Z " fill="#B0AFA2" transform="translate(139,177)"/>
<path d="M0 0 C-0.99 0.495 -0.99 0.495 -2 1 C-2 1.66 -2 2.32 -2 3 C-3.4370809 3.05422947 -4.87475462 3.09289723 -6.3125 3.125 C-7.11300781 3.14820313 -7.91351563 3.17140625 -8.73828125 3.1953125 C-11 3 -11 3 -14 1 C-4.58997722 -0.14806378 -4.58997722 -0.14806378 0 0 Z " fill="#FCEED9" transform="translate(279,146)"/>
<path d="M0 0 C1.70884005 1.62339805 3.37446717 3.29319053 5 5 C5 5.66 5 6.32 5 7 C5.66 7 6.32 7 7 7 C6.67 7.66 6.34 8.32 6 9 C4.125 8.75 4.125 8.75 2 8 C-0.02755186 5.06004981 0 3.72295997 0 0 Z " fill="#A5A499" transform="translate(114,263)"/>
<path d="M0 0 C0.99 0.33 1.98 0.66 3 1 C3 1.66 3 2.32 3 3 C4.32 3.33 5.64 3.66 7 4 C7 4.99 7 5.98 7 7 C7.66 7 8.32 7 9 7 C9.33 8.32 9.66 9.64 10 11 C9.34 10.67 8.68 10.34 8 10 C8 9.34 8 8.68 8 8 C7.34 8 6.68 8 6 8 C6 7.34 6 6.68 6 6 C5.34 6 4.68 6 4 6 C4 5.34 4 4.68 4 4 C3.34 4 2.68 4 2 4 C2 3.34 2 2.68 2 2 C1.34 2 0.68 2 0 2 C0 1.34 0 0.68 0 0 Z " fill="#9CA798" transform="translate(281,308)"/>
<path d="M0 0 C0.66 0.33 1.32 0.66 2 1 C2 1.99 2 2.98 2 4 C-4.625 6 -4.625 6 -8 6 C-3.375 1.125 -3.375 1.125 0 0 Z " fill="#8B8878" transform="translate(345,306)"/>
<path d="M0 0 C0.66 0 1.32 0 2 0 C2.33 0.99 2.66 1.98 3 3 C5.00016466 4.20882096 5.00016466 4.20882096 7 5 C6.67 6.32 6.34 7.64 6 9 C3.69 6.69 1.38 4.38 -1 2 C-0.67 1.34 -0.34 0.68 0 0 Z " fill="#A3A89D" transform="translate(301,298)"/>
<path d="M0 0 C0.99 0.33 1.98 0.66 3 1 C2.875 3.3125 2.875 3.3125 2 6 C-1.0625 7.8125 -1.0625 7.8125 -4 9 C-2.79618552 6.50638429 -1.54571278 4.31856917 0 2 C0 1.34 0 0.68 0 0 Z " fill="#A0A094" transform="translate(227,195)"/>
<path d="M0 0 C0.66 0 1.32 0 2 0 C2 0.66 2 1.32 2 2 C2.66 2 3.32 2 4 2 C4 2.66 4 3.32 4 4 C4.66 4 5.32 4 6 4 C6 4.66 6 5.32 6 6 C7.32 6.33 8.64 6.66 10 7 C9.67 7.99 9.34 8.98 9 10 C8.34 9.67 7.68 9.34 7 9 C7 8.34 7 7.68 7 7 C6.34 7 5.68 7 5 7 C5 6.34 5 5.68 5 5 C4.34 5 3.68 5 3 5 C3 4.34 3 3.68 3 3 C2.34 3 1.68 3 1 3 C0.67 2.01 0.34 1.02 0 0 Z " fill="#91948A" transform="translate(321,348)"/>
<path d="M0 0 C0.66 0 1.32 0 2 0 C2.66 1.98 3.32 3.96 4 6 C3.01 6.495 3.01 6.495 2 7 C1.34 6.67 0.68 6.34 0 6 C0 5.34 0 4.68 0 4 C-0.66 4 -1.32 4 -2 4 C-1.34 2.68 -0.68 1.36 0 0 Z " fill="#FBEFD9" transform="translate(325,346)"/>
<path d="M0 0 C-3.0469629 1.69433918 -5.82821466 2.49467112 -9.25 3.125 C-10.58804687 3.37636719 -10.58804687 3.37636719 -11.953125 3.6328125 C-12.62859375 3.75398438 -13.3040625 3.87515625 -14 4 C-14 3.34 -14 2.68 -14 2 C-12.02 2 -10.04 2 -8 2 C-8 1.34 -8 0.68 -8 0 C-4.71023192 -1.09658936 -3.28696233 -0.79953138 0 0 Z " fill="#AAA79E" transform="translate(299,346)"/>
<path d="M0 0 C2.31 0 4.62 0 7 0 C7 1.65 7 3.3 7 5 C5.68 5 4.36 5 3 5 C3 4.01 3 3.02 3 2 C2.01 2 1.02 2 0 2 C0 1.34 0 0.68 0 0 Z " fill="#FBEFD8" transform="translate(343,332)"/>
<path d="M0 0 C2.70931419 0.15481795 4.46584039 0.48172081 6.4453125 2.40234375 C7.67679642 3.89771708 8.8429837 5.4462924 10 7 C7 7 7 7 5 6 C5 5.34 5 4.68 5 4 C4.34 4 3.68 4 3 4 C3 3.34 3 2.68 3 2 C2.01 1.67 1.02 1.34 0 1 C0 0.67 0 0.34 0 0 Z " fill="#94978D" transform="translate(138,308)"/>
<path d="M0 0 C0.66 0 1.32 0 2 0 C2 0.66 2 1.32 2 2 C2.5775 2.226875 3.155 2.45375 3.75 2.6875 C6.5663661 4.33038023 8.08077114 6.39533227 10 9 C7.0625 8.1875 7.0625 8.1875 4 7 C3.67 6.01 3.34 5.02 3 4 C2.01 3.34 1.02 2.68 0 2 C0 1.34 0 0.68 0 0 Z " fill="#949C90" transform="translate(291,302)"/>
<path d="M0 0 C0 2.66420516 -0.09162237 4.52260646 -1 7 C-1.99 7.33 -2.98 7.66 -4 8 C-5.0625 6.125 -5.0625 6.125 -6 4 C-5.67 3.34 -5.34 2.68 -5 2 C-4.01 2 -3.02 2 -2 2 C-1.34 1.34 -0.68 0.68 0 0 Z " fill="#9E9F94" transform="translate(329,302)"/>
<path d="M0 0 C0.66 0 1.32 0 2 0 C1.60196439 2.88575819 1.20990931 3.82189513 -1.0625 5.75 C-1.701875 6.1625 -2.34125 6.575 -3 7 C-3.66 6.34 -4.32 5.68 -5 5 C-3.625 3.5 -3.625 3.5 -2 2 C-1.34 2 -0.68 2 0 2 C0 1.34 0 0.68 0 0 Z " fill="#B9B7A8" transform="translate(352,300)"/>
<path d="M0 0 C2.96175123 0.61277612 4.38058783 1.25372522 7 3 C7.6875 5.625 7.6875 5.625 8 8 C6.85073734 7.04578192 5.70569459 6.08647955 4.5625 5.125 C3.92441406 4.59132813 3.28632812 4.05765625 2.62890625 3.5078125 C1 2 1 2 0 0 Z " fill="#A7A69D" transform="translate(118,289)"/>
<path d="M0 0 C0.68359375 1.765625 0.68359375 1.765625 1 4 C-0.21484375 5.921875 -0.21484375 5.921875 -1.9375 7.75 C-2.50339844 8.36359375 -3.06929687 8.9771875 -3.65234375 9.609375 C-4.31943359 10.29773438 -4.31943359 10.29773438 -5 11 C-5.99 10.67 -6.98 10.34 -8 10 C-7.25943359 9.29423828 -7.25943359 9.29423828 -6.50390625 8.57421875 C-5.86324219 7.95160156 -5.22257813 7.32898438 -4.5625 6.6875 C-3.92441406 6.07261719 -3.28632813 5.45773437 -2.62890625 4.82421875 C-0.7778582 2.99355944 -0.7778582 2.99355944 0 0 Z " fill="#7C8778" transform="translate(204,277)"/>
<path d="M0 0 C0 0.99 0 1.98 0 3 C-4.455 4.485 -4.455 4.485 -9 6 C-4.38461538 0 -4.38461538 0 0 0 Z " fill="#B4B6AC" transform="translate(197,250)"/>
<path d="M0 0 C0.99 0.33 1.98 0.66 3 1 C3.33 1.99 3.66 2.98 4 4 C2.68 5.32 1.36 6.64 0 8 C-0.99 7.67 -1.98 7.34 -3 7 C-2 4 -2 4 0.0625 2.8125 C0.701875 2.544375 1.34125 2.27625 2 2 C1.34 2 0.68 2 0 2 C0 1.34 0 0.68 0 0 Z " fill="#4EBA96" transform="translate(311,193)"/>
<path d="M0 0 C0.99 0.495 0.99 0.495 2 1 C2 1.99 2 2.98 2 4 C2.66 4 3.32 4 4 4 C4.66 5.98 5.32 7.96 6 10 C4.68 9.67 3.36 9.34 2 9 C1.34 6.03 0.68 3.06 0 0 Z " fill="#A7A79D" transform="translate(347,188)"/>
<path d="M0 0 C1.11058786 2.07309734 1.97398494 3.88618411 2.5 6.1875 C2.665 6.785625 2.83 7.38375 3 8 C3.66 8.33 4.32 8.66 5 9 C4.01 10.485 4.01 10.485 3 12 C1.35 8.37 -0.3 4.74 -2 1 C-1.34 0.67 -0.68 0.34 0 0 Z " fill="#A4B299" transform="translate(339,195)"/>
<path d="M0 0 C0.99 0 1.98 0 3 0 C3.33 1.98 3.66 3.96 4 6 C2.68 5.67 1.36 5.34 0 5 C-0.5625 3.0625 -0.5625 3.0625 -1 1 C-0.67 0.67 -0.34 0.34 0 0 Z " fill="#EBE2D1" transform="translate(217,179)"/>
<path d="M0 0 C0.763125 0.20625 1.52625 0.4125 2.3125 0.625 C-0.05042656 3.15088702 -1.35212511 4.51320837 -4.6875 5.625 C-5.0175 4.305 -5.3475 2.985 -5.6875 1.625 C-2.6875 -0.375 -2.6875 -0.375 0 0 Z " fill="#B4B6A4" transform="translate(196.6875,161.375)"/>
<path d="M0 0 C6.52307692 -0.36923077 6.52307692 -0.36923077 8.9375 1.5 C9.288125 1.995 9.63875 2.49 10 3 C6.65155086 4.05236973 5.40920111 4.20005388 2.1875 2.625 C1.465625 2.08875 0.74375 1.5525 0 1 C0 0.67 0 0.34 0 0 Z " fill="#B5B3A6" transform="translate(172,332)"/>
<path d="M0 0 C-4.75890529 2.37945265 -7.54838765 3.10095578 -13 3 C-8.07780292 -0.77368442 -6.24627114 -1.04104519 0 0 Z " fill="#A4AA9C" transform="translate(269,313)"/>
<path d="M0 0 C5.75 -0.125 5.75 -0.125 8 1 C8 1.66 8 2.32 8 3 C7.34 3 6.68 3 6 3 C5.67 3.66 5.34 4.32 5 5 C3.35 3.35 1.7 1.7 0 0 Z " fill="#FCF0E1" transform="translate(300,250)"/>
<path d="M0 0 C0.66 0 1.32 0 2 0 C3.04005702 3.38018531 3.08004482 6.4780279 3 10 C2.34 10 1.68 10 1 10 C-0.1577506 6.52674819 -0.06866652 3.63932552 0 0 Z " fill="#F4E9DA" transform="translate(140,242)"/>
<path d="M0 0 C1.32 0.66 2.64 1.32 4 2 C4 2.99 4 3.98 4 5 C2.68 5.33 1.36 5.66 0 6 C-0.38218767 4.34385343 -0.71395102 2.67542976 -1 1 C-0.67 0.67 -0.34 0.34 0 0 Z " fill="#FBEDD8" transform="translate(221,208)"/>
<path d="M0 0 C0.99 0.33 1.98 0.66 3 1 C2.67 2.32 2.34 3.64 2 5 C0.68 5.33 -0.64 5.66 -2 6 C-1.125 1.125 -1.125 1.125 0 0 Z " fill="#F6ECD8" transform="translate(154,192)"/>
<path d="M0 0 C0.66 0.33 1.32 0.66 2 1 C1.4375 2.9375 1.4375 2.9375 0 5 C-3.625 5.75 -3.625 5.75 -7 6 C-4.74259377 3.66475218 -2.7194239 1.81294927 0 0 Z " fill="#9EA69C" transform="translate(158,162)"/>
<path d="M0 0 C5.75 1.75 5.75 1.75 8 4 C5.69 4.33 3.38 4.66 1 5 C0.34 4.01 -0.32 3.02 -1 2 C-0.67 1.34 -0.34 0.68 0 0 Z " fill="#B8B2A3" transform="translate(325,151)"/>
<path d="M0 0 C1.485 0.99 1.485 0.99 3 2 C3 2.66 3 3.32 3 4 C3.9590625 4.433125 3.9590625 4.433125 4.9375 4.875 C7 6 7 6 8 8 C6.02 8 4.04 8 2 8 C1.855625 7.236875 1.71125 6.47375 1.5625 5.6875 C1.0367406 2.91827092 1.0367406 2.91827092 0 0 Z " fill="#95978C" transform="translate(303,313)"/>
<path d="M0 0 C1.77706209 2.66559313 2.87548273 5.0280615 4 8 C1.33333333 6.66666667 -1.33333333 5.33333333 -4 4 C-3.67 3.34 -3.34 2.68 -3 2 C-2.34 2.33 -1.68 2.66 -1 3 C-0.67 2.01 -0.34 1.02 0 0 Z " fill="#A0998A" transform="translate(163,306)"/>
<path d="M0 0 C0.99 0 1.98 0 3 0 C3 0.66 3 1.32 3 2 C3.66 2.33 4.32 2.66 5 3 C5 4.98 5 6.96 5 9 C0.57142857 3.85714286 0.57142857 3.85714286 0 0 Z " fill="#B0B19F" transform="translate(152,292)"/>
<path d="M0 0 C1 3 1 3 0.0625 5.1875 C-0.4634375 6.0846875 -0.4634375 6.0846875 -1 7 C-1.66 7 -2.32 7 -3 7 C-3.33 7.99 -3.66 8.98 -4 10 C-4 8.02 -4 6.04 -4 4 C-3.01 3.67 -2.02 3.34 -1 3 C-0.67 2.01 -0.34 1.02 0 0 Z " fill="#B9BBB0" transform="translate(352,288)"/>
<path d="M0 0 C0.66 0 1.32 0 2 0 C1.67 2.97 1.34 5.94 1 9 C0.34 8.67 -0.32 8.34 -1 8 C-1.125 2.25 -1.125 2.25 0 0 Z " fill="#C6C5B8" transform="translate(346,270)"/>
<path d="M0 0 C0.33 0.66 0.66 1.32 1 2 C1.66 2 2.32 2 3 2 C3 2.66 3 3.32 3 4 C3.66 4.33 4.32 4.66 5 5 C4.67 6.98 4.34 8.96 4 11 C3.33333333 9.66666667 2.66666667 8.33333333 2 7 C1.62875 6.319375 1.2575 5.63875 0.875 4.9375 C0 3 0 3 0 0 Z " fill="#A0A196" transform="translate(144,273)"/>
<path d="M0 0 C1.98 1.65 3.96 3.3 6 5 C4.1875 5.6875 4.1875 5.6875 2 6 C0.25 4.5625 0.25 4.5625 -1 3 C-0.67 2.01 -0.34 1.02 0 0 Z " fill="#A6ACA0" transform="translate(380,193)"/>
<path d="M0 0 C0.66 0.33 1.32 0.66 2 1 C2 1.99 2 2.98 2 4 C-0.5 5.6875 -0.5 5.6875 -3 7 C-3.33 6.01 -3.66 5.02 -4 4 C-3.67 3.34 -3.34 2.68 -3 2 C-2.01 2 -1.02 2 0 2 C0 1.34 0 0.68 0 0 Z " fill="#C7C5B4" transform="translate(183,170)"/>
<path d="M0 0 C-0.33 1.65 -0.66 3.3 -1 5 C-1.99 5 -2.98 5 -4 5 C-4.33 3.68 -4.66 2.36 -5 1 C-2 0 -2 0 0 0 Z " fill="#FBEED8" transform="translate(167,321)"/>
<path d="M0 0 C0 0.66 0 1.32 0 2 C-2.3125 2.6875 -2.3125 2.6875 -5 3 C-6.8125 1.5625 -6.8125 1.5625 -8 0 C-4.71023192 -1.09658936 -3.28696233 -0.79953138 0 0 Z " fill="#FBF0DA" transform="translate(186,316)"/>
<path d="M0 0 C0.99 0.33 1.98 0.66 3 1 C3 3.31 3 5.62 3 8 C2.34 8 1.68 8 1 8 C0.26919734 6.02253397 -0.39421747 4.01927511 -1 2 C-0.67 1.34 -0.34 0.68 0 0 Z " fill="#FDECD5" transform="translate(219,296)"/>
<path d="M0 0 C1.32 0.66 2.64 1.32 4 2 C1.03 4.475 1.03 4.475 -2 7 C-2 5.68 -2 4.36 -2 3 C-1.34 3 -0.68 3 0 3 C0 2.01 0 1.02 0 0 Z " fill="#BDBBAF" transform="translate(378,291)"/>
<path d="M0 0 C0.33 0 0.66 0 1 0 C1.33 4.29 1.66 8.58 2 13 C1.67 12.01 1.34 11.02 1 10 C0.34 10 -0.32 10 -1 10 C-0.67 6.7 -0.34 3.4 0 0 Z " fill="#908F89" transform="translate(153,252)"/>
<path d="M0 0 C1.125 1.625 1.125 1.625 2 4 C1.125 7.25 1.125 7.25 0 10 C-0.33 10 -0.66 10 -1 10 C-1.125 2.25 -1.125 2.25 0 0 Z " fill="#D3CFC3" transform="translate(219,209)"/>
<path d="M0 0 C2.91227269 3.28804981 4.49701212 5.59885603 5 10 C0.07692308 5.69230769 0.07692308 5.69230769 -0.3125 2.1875 C-0.209375 1.465625 -0.10625 0.74375 0 0 Z " fill="#3A806A" transform="translate(299,192)"/>
<path d="M0 0 C0.99 0.33 1.98 0.66 3 1 C2.67 2.65 2.34 4.3 2 6 C1.01 6 0.02 6 -1 6 C-0.67 4.02 -0.34 2.04 0 0 Z " fill="#D1CABB" transform="translate(276,187)"/>
<path d="M0 0 C1.98 0.66 3.96 1.32 6 2 C6.33 3.65 6.66 5.3 7 7 C5.83040013 6.02433888 4.66438823 5.044375 3.5 4.0625 C2.8503125 3.51722656 2.200625 2.97195312 1.53125 2.41015625 C1.0259375 1.94480469 0.520625 1.47945312 0 1 C0 0.67 0 0.34 0 0 Z " fill="#ADADA5" transform="translate(320,174)"/>
<path d="M0 0 C1.98 0.66 3.96 1.32 6 2 C5.67 2.99 5.34 3.98 5 5 C3.125 4.6875 3.125 4.6875 1 4 C0.34 3.01 -0.32 2.02 -1 1 C-0.67 0.67 -0.34 0.34 0 0 Z " fill="#D5D3C4" transform="translate(317,169)"/>
<path d="M0 0 C1.65 0 3.3 0 5 0 C6.125 3.75 6.125 3.75 5 6 C3.35 4.02 1.7 2.04 0 0 Z " fill="#B0AEA6" transform="translate(126,297)"/>
<path d="M0 0 C0.33 0 0.66 0 1 0 C1.268125 0.9075 1.53625 1.815 1.8125 2.75 C2.89576294 5.71471963 3.98359457 7.6169754 6 10 C4.35 9.67 2.7 9.34 1 9 C0.67 6.03 0.34 3.06 0 0 Z " fill="#7A7D73" transform="translate(298,275)"/>
<path d="M0 0 C1.32 1.32 2.64 2.64 4 4 C3.34 4 2.68 4 2 4 C1.34 5.32 0.68 6.64 0 8 C-0.79953138 4.71303767 -1.09658936 3.28976808 0 0 Z " fill="#C8C1AE" transform="translate(318,259)"/>
<path d="M0 0 C1.32 0 2.64 0 4 0 C5.0625 1.8125 5.0625 1.8125 6 4 C5.67 4.99 5.34 5.98 5 7 C0 1.125 0 1.125 0 0 Z " fill="#9D9E96" transform="translate(376,209)"/>
<path d="M0 0 C1.65 1.65 3.3 3.3 5 5 C4.67 5.66 4.34 6.32 4 7 C3.01 6.67 2.02 6.34 1 6 C0.67 4.02 0.34 2.04 0 0 Z " fill="#ADAE9F" transform="translate(107,255)"/>
<path d="M0 0 C0.66 0.33 1.32 0.66 2 1 C0.25 5.875 0.25 5.875 -2 7 C-2.6875 5.1875 -2.6875 5.1875 -3 3 C-1.5625 1.25 -1.5625 1.25 0 0 Z " fill="#ADAAA1" transform="translate(412,251)"/>
<path d="M0 0 C2 1 2 1 2.6328125 2.84765625 C2.79523438 3.57855469 2.95765625 4.30945313 3.125 5.0625 C3.29257813 5.79597656 3.46015625 6.52945313 3.6328125 7.28515625 C3.75398438 7.85105469 3.87515625 8.41695313 4 9 C1.4375 6.75 1.4375 6.75 -1 4 C-0.8125 1.6875 -0.8125 1.6875 0 0 Z " fill="#99978F" transform="translate(88,248)"/>
<path d="M0 0 C0.99 0 1.98 0 3 0 C2.34 1.98 1.68 3.96 1 6 C0.01 5.67 -0.98 5.34 -2 5 C-1.34 3.35 -0.68 1.7 0 0 Z " fill="#FAECDB" transform="translate(405,243)"/>
<path d="M0 0 C2.97 0.495 2.97 0.495 6 1 C5.01 2.32 4.02 3.64 3 5 C1.5 3.625 1.5 3.625 0 2 C0 1.34 0 0.68 0 0 Z " fill="#B3B8AC" transform="translate(390,225)"/>
<path d="M0 0 C2 2 2 2 2.125 4.625 C2.08375 5.40875 2.0425 6.1925 2 7 C1.34 6.01 0.68 5.02 0 4 C-1.32 4 -2.64 4 -4 4 C-4 3.34 -4 2.68 -4 2 C-2.68 1.34 -1.36 0.68 0 0 Z " fill="#F7EED8" transform="translate(284,216)"/>
<path d="M0 0 C0.66 0.33 1.32 0.66 2 1 C1.6875 2.875 1.6875 2.875 1 5 C0.01 5.66 -0.98 6.32 -2 7 C-2.33 5.68 -2.66 4.36 -3 3 C-2.34 2.67 -1.68 2.34 -1 2 C-0.67 1.34 -0.34 0.68 0 0 Z " fill="#B2B0A1" transform="translate(235,203)"/>
<path d="M0 0 C0.33 0 0.66 0 1 0 C1.1875 2.875 1.1875 2.875 1 6 C0.01 6.66 -0.98 7.32 -2 8 C-2 7.34 -2 6.68 -2 6 C-2.66 5.67 -3.32 5.34 -4 5 C-3.525625 4.54625 -3.05125 4.0925 -2.5625 3.625 C-0.90972192 2.06741796 -0.90972192 2.06741796 0 0 Z " fill="#A3A298" transform="translate(288,175)"/>
<path d="M0 0 C0.33 0.99 0.66 1.98 1 3 C1.66 3 2.32 3 3 3 C3 4.65 3 6.3 3 8 C2.34 8 1.68 8 1 8 C-0.42944945 5.64561267 -1.08661261 4.51967567 -0.625 1.75 C-0.41875 1.1725 -0.2125 0.595 0 0 Z " fill="#9EABA3" transform="translate(214,175)"/>
<path d="M0 0 C0 0.33 0 0.66 0 1 C-4.455 1.495 -4.455 1.495 -9 2 C-9 1.34 -9 0.68 -9 0 C-5.93109813 -1.53445094 -3.29905734 -0.54984289 0 0 Z " fill="#92978B" transform="translate(224,173)"/>
<path d="M0 0 C1.65 0 3.3 0 5 0 C4.67 1.32 4.34 2.64 4 4 C3.01 4 2.02 4 1 4 C0.67 2.68 0.34 1.36 0 0 Z " fill="#FBEFD7" transform="translate(159,164)"/>
<path d="M0 0 C1.67542976 0.28604898 3.34385343 0.61781233 5 1 C3.35 2.32 1.7 3.64 0 5 C-0.5625 3.0625 -0.5625 3.0625 -1 1 C-0.67 0.67 -0.34 0.34 0 0 Z " fill="#FDEEDB" transform="translate(190,146)"/>
<path d="M0 0 C-0.66 0 -1.32 0 -2 0 C-2 0.66 -2 1.32 -2 2 C-3.65 1.67 -5.3 1.34 -7 1 C-7.33 1.66 -7.66 2.32 -8 3 C-8.66 2.34 -9.32 1.68 -10 1 C-3.71428571 -1.42857143 -3.71428571 -1.42857143 0 0 Z " fill="#A3A094" transform="translate(213,139)"/>
</svg>
